<?xml version="1.0" encoding="utf-8"?>
<!-- Generator: Adobe Illustrator 16.0.0, SVG Export Plug-In . SVG Version: 6.00 Build 0)  -->
<!DOCTYPE svg PUBLIC "-//W3C//DTD SVG 1.1//EN" "http://www.w3.org/Graphics/SVG/1.1/DTD/svg11.dtd">
<svg version="1.1" xmlns="http://www.w3.org/2000/svg" xmlns:xlink="http://www.w3.org/1999/xlink" x="0px" y="0px" width="600px"
	 height="600px" viewBox="0 0 600 600" enable-background="new 0 0 600 600" xml:space="preserve">
<g id="Colour_Pallete">
</g>
<g id="FlipMe_logo">
</g>
<g id="Snake-elix">
</g>
<g id="Eyes-elix">
	<g>
		<ellipse opacity="0.4" fill="#4D7372" cx="300" cy="562.829" rx="228.336" ry="35.157"/>
		<ellipse opacity="0.4" fill="#4D7372" cx="300" cy="554.131" rx="151.714" ry="26.458"/>
		<g>
			<circle opacity="0.4" fill="#88BF40" cx="271.741" cy="93.439" r="15.685"/>
			<circle opacity="0.4" fill="#88BF40" cx="329.093" cy="110.479" r="12.295"/>
			<circle opacity="0.4" fill="#88BF40" cx="317.73" cy="48.097" r="12.295"/>
			<circle opacity="0.4" fill="#88BF40" cx="275.617" cy="11.416" r="9.402"/>
			<circle opacity="0.4" fill="#88BF40" cx="297.154" cy="139.873" r="25.688"/>
			<path fill="#72AEAF" d="M453.743,508.689c-0.786-37.938-97.735-109.625-103.304-128.929s-6.97-172.475-6.97-172.475
				s25.522-1.497,24.787-19.431c-0.8-19.495-19.365-19.956-19.365-19.956l-48.288,0.123v-0.057h-52.426
				c0,0-18.564,0.508-19.314,20.005c-0.69,17.935,25.687,19.315,25.687,19.315s1.756,150.792-3.765,170.109
				c-5.519,19.318-104.699,91.307-105.39,129.246c-0.69,37.94,35.849,51.811,35.849,51.811l115.719,1.181v0.108l125.744-1.603
				C422.707,558.139,454.529,546.628,453.743,508.689z"/>
			<g>
				<path fill="#578485" d="M453.583,507.333c-2.457,33.156-30.876,43.443-30.876,43.443l-125.744,1.603v-0.108l-115.719-1.181
					c0,0-32.832-12.469-35.66-46.09c-0.107,0.868-0.174,1.721-0.188,2.557c-0.69,37.94,35.849,51.811,35.849,51.811l115.719,1.181
					v0.108l125.744-1.603c0,0,31.822-11.511,31.036-49.448C453.728,508.861,453.671,508.103,453.583,507.333z"/>
			</g>
			<path fill="#BACAD3" d="M438.402,505.603c-0.669-32.271-96.502-100.476-101.238-116.895
				c-3.803-13.184-4.508-149.888-4.139-181.422l-69.617,0.723c0.45,31.494,3.718,165.429-0.055,178.629
				c-4.694,16.433-103.232,86.994-103.818,119.268c-0.587,32.271,25.869,32.492,25.869,32.492l113.567,2.069l117.521-2.069
				C416.492,538.397,439.07,537.873,438.402,505.603z"/>
			<path fill="#88BF40" d="M366.286,419.4c-2.326,0.556-5.942,1.349-8.428,2.072c-14.001,4.077-26.413,4.586-40.7,2.069
				c-11.738-2.067-22.941-3.508-35.181-1.264c-13.059,2.394-22.564,4.899-35.87,2.088c-5.314-1.124-11.25-1.881-16.072-2.66
				c-30.377,27.834-71.008,62.247-70.501,84.884c0.722,32.271,25.87,32.493,25.87,32.493l113.565,2.07l117.522-2.07
				c0,0,23.545-0.035,22.877-32.306C438.922,485.188,396.148,446.891,366.286,419.4z"/>
			<path opacity="0.5" fill="#688D3C" d="M438.217,500.553c-4.87,18.696-21.725,18.725-21.725,18.725l-117.522,2.069l-113.565-2.069
				c0,0-19.568,0.37-25.225-18.725c-0.999,2.707-0.604,4.721-0.646,7.061c-0.587,32.272,25.87,32.493,25.87,32.493l113.565,2.069
				l117.522-2.069c0,0,23.107-1.514,23.107-30.794C439.6,507.106,439.092,503.067,438.217,500.553z"/>
			<g>
				<circle fill="#B7D53E" cx="232.59" cy="458.453" r="9.083"/>
				<path opacity="0.6" fill="#FFFFFF" d="M231.555,451.21c-1.506,0.138-3.137,1.283-4.188,2.756
					c-1.184,1.413-1.654,3.42-0.82,5.241c1.183,2.578,2.316,1.541,3.569,0.052c1.305-1.552,1.834-1.835,3.509-2.99
					C236.759,454.107,235.434,450.858,231.555,451.21z"/>
			</g>
			<g>
				<circle fill="#B7D53E" cx="294.884" cy="389.238" r="11.843"/>
				<path opacity="0.6" fill="#FFFFFF" d="M293.535,379.796c-1.964,0.178-4.091,1.671-5.461,3.591
					c-1.543,1.843-2.156,4.46-1.068,6.834c1.541,3.361,3.02,2.01,4.654,0.067c1.7-2.022,2.391-2.393,4.573-3.897
					C300.319,383.572,298.592,379.336,293.535,379.796z"/>
			</g>
			<g>
				<circle fill="#B7D53E" cx="317.73" cy="335.89" r="9.083"/>
				<path opacity="0.6" fill="#FFFFFF" d="M316.695,328.647c-1.506,0.137-3.137,1.282-4.188,2.755
					c-1.184,1.413-1.654,3.421-0.819,5.241c1.181,2.578,2.315,1.542,3.568,0.052c1.305-1.552,1.834-1.835,3.509-2.99
					C321.899,331.544,320.573,328.295,316.695,328.647z"/>
			</g>
			<g>
				<circle fill="#B7D53E" cx="288.071" cy="271.504" r="9.083"/>
				<path opacity="0.6" fill="#FFFFFF" d="M287.036,264.261c-1.506,0.137-3.137,1.282-4.188,2.754
					c-1.184,1.413-1.654,3.421-0.819,5.242c1.182,2.578,2.315,1.541,3.568,0.051c1.305-1.551,1.834-1.835,3.509-2.989
					C292.24,267.158,290.915,263.909,287.036,264.261z"/>
			</g>
			<g>
				<circle fill="#B7D53E" cx="297.154" cy="139.873" r="15.269"/>
				<path opacity="0.6" fill="#FFFFFF" d="M295.415,127.697c-2.532,0.23-5.273,2.156-7.041,4.63
					c-1.989,2.376-2.78,5.751-1.377,8.812c1.986,4.334,3.894,2.591,6,0.086c2.192-2.607,3.082-3.084,5.896-5.025
					C304.162,132.567,301.935,127.105,295.415,127.697z"/>
			</g>
			<g>
				<circle fill="#B7D53E" cx="272.836" cy="94.187" r="9.083"/>
				<path opacity="0.6" fill="#FFFFFF" d="M271.801,86.944c-1.505,0.137-3.137,1.282-4.188,2.754
					c-1.184,1.414-1.653,3.421-0.819,5.242c1.182,2.578,2.315,1.541,3.569,0.051c1.305-1.551,1.833-1.835,3.508-2.989
					C277.006,89.841,275.68,86.591,271.801,86.944z"/>
			</g>
			<g>
				<circle fill="#B7D53E" cx="254.551" cy="481.778" r="5.289"/>
				<path opacity="0.6" fill="#FFFFFF" d="M253.947,477.562c-0.877,0.079-1.827,0.746-2.438,1.604
					c-0.688,0.823-0.963,1.992-0.478,3.053c0.688,1.501,1.349,0.897,2.079,0.029c0.759-0.903,1.067-1.068,2.043-1.74
					C256.978,479.248,256.206,477.356,253.947,477.562z"/>
			</g>
			<g>
				<circle fill="#B7D53E" cx="361.004" cy="440.604" r="10.564"/>
				<path opacity="0.6" fill="#FFFFFF" d="M359.801,432.181c-1.752,0.159-3.649,1.491-4.872,3.203
					c-1.376,1.645-1.924,3.98-0.952,6.098c1.374,2.998,2.693,1.793,4.151,0.06c1.517-1.804,2.132-2.134,4.079-3.478
					C365.854,435.55,364.312,431.771,359.801,432.181z"/>
			</g>
			<g>
				<circle fill="#B7D53E" cx="385.284" cy="492.225" r="8.63"/>
				<path opacity="0.6" fill="#FFFFFF" d="M384.301,485.344c-1.432,0.129-2.981,1.217-3.979,2.617
					c-1.124,1.343-1.572,3.25-0.779,4.979c1.123,2.45,2.202,1.465,3.393,0.049c1.238-1.474,1.741-1.743,3.333-2.84
					C389.244,488.096,387.986,485.009,384.301,485.344z"/>
			</g>
			<g>
				<circle fill="#B7D53E" cx="321.708" cy="464.612" r="8.63"/>
				<path opacity="0.6" fill="#FFFFFF" d="M320.724,457.73c-1.431,0.131-2.98,1.219-3.979,2.617
					c-1.124,1.343-1.571,3.251-0.778,4.98c1.123,2.45,2.201,1.465,3.392,0.049c1.238-1.474,1.742-1.743,3.333-2.84
					C325.668,460.483,324.409,457.396,320.724,457.73z"/>
			</g>
			<g>
				<circle fill="#B7D53E" cx="399.755" cy="480.334" r="5.841"/>
				<path opacity="0.6" fill="#FFFFFF" d="M399.09,475.677c-0.969,0.088-2.018,0.824-2.693,1.771
					c-0.761,0.909-1.064,2.2-0.527,3.371c0.76,1.658,1.49,0.991,2.296,0.032c0.839-0.997,1.179-1.179,2.256-1.922
					C402.437,477.54,401.584,475.45,399.09,475.677z"/>
			</g>
			<g>
				<circle fill="#B7D53E" cx="195.626" cy="500.023" r="8.667"/>
				<path opacity="0.6" fill="#FFFFFF" d="M194.639,493.112c-1.438,0.131-2.994,1.224-3.997,2.629
					c-1.128,1.349-1.578,3.264-0.781,5.001c1.127,2.46,2.21,1.471,3.405,0.049c1.244-1.479,1.749-1.751,3.347-2.852
					C199.604,495.877,198.339,492.776,194.639,493.112z"/>
			</g>
			<g>
				<circle fill="#B7D53E" cx="286.283" cy="432.149" r="5.842"/>
				<path opacity="0.6" fill="#FFFFFF" d="M285.618,427.492c-0.969,0.088-2.018,0.824-2.694,1.771
					c-0.761,0.91-1.063,2.201-0.527,3.372c0.761,1.658,1.49,0.991,2.296,0.032c0.839-0.997,1.179-1.18,2.257-1.923
					C288.964,429.355,288.111,427.266,285.618,427.492z"/>
			</g>
			<g>
				<circle fill="#B7D53E" cx="329.153" cy="110.539" r="5.841"/>
				<path opacity="0.6" fill="#FFFFFF" d="M328.487,105.881c-0.969,0.088-2.018,0.825-2.694,1.771
					c-0.76,0.91-1.063,2.201-0.526,3.372c0.761,1.658,1.489,0.991,2.295,0.033c0.84-0.998,1.18-1.18,2.257-1.922
					C331.834,107.744,330.981,105.654,328.487,105.881z"/>
			</g>
			<g>
				<path fill="#A9DCD7" d="M355.636,498.404c-7.13-18.253-26.029-36.297-46.757-34.506c-16.012,1.382-34.535,20.505-35.068,36.892
					c-4.938,20.086,9.577,32.219,28.173,37.779C325.865,545.711,367.785,529.503,355.636,498.404z"/>
				<path fill="#7ABBAF" d="M355.636,499.318c-4.769-12.208-14.802-24.32-27.124-30.47c6.846,6.278,12.261,14.267,15.397,22.296
					c12.148,31.099-29.771,47.307-53.652,40.165c-3.444-1.03-6.749-2.286-9.815-3.775c5.33,5.457,13.005,9.396,21.542,11.949
					C325.865,546.624,367.785,530.416,355.636,499.318z"/>
				<path opacity="0.4" fill="#FFFFFF" d="M315.779,479.058c-2.218-3.962-8.909-5.867-13.141-4.849
					c-3.948,0.951-6.985,3.959-9.241,7.711c-5.872,5.491-10.335,13.842-7.484,19.917c6.333,13.498,19.59-5.193,25.039-10.347
					C314.786,487.863,318.731,484.325,315.779,479.058z"/>
				<path fill="#38733A" d="M356.295,498.404c-5.767-14.761-19.23-29.384-35.133-33.492c-2.52,2.5-4.183,5.194-3.09,9.513
					c0.782,3.098,3.396,6.149,5.264,8.802c3.835,5.447,8.584,10.352,12.593,15.667c8.877,11.771,21.244,12.399,21.876,11.73
					C357.925,507.048,357.904,502.523,356.295,498.404z"/>
				<path fill="#231F20" d="M335.507,471.801c-9.02,3.027,4.891,19.021,9.877,21.836c3.327,1.879,7.146,2.093,9.021,0.489
					C350.456,485.607,343.359,477.719,335.507,471.801z"/>
				<path fill="#88BF40" d="M338.818,488.301c-3.498-3.648-6.123-8.782-5.676-13.773c0.115-1.292,0.751-1.872,0.751-1.872
					c-3.011-2.736-13.03-4.924-12.13,1.856c0.369,2.777,2.319,5.42,3.837,7.698c2.054,3.086,4.351,6.335,7.022,8.858
					c1.671,1.578,5.219,3.153,7.553,2.146C343.532,491.764,340.14,489.677,338.818,488.301z"/>
				<path fill="#FFFFFF" d="M338.792,478.646c-0.308-2.262-3.146-4.06-5.216-4.288c-0.807-0.089-1.624-0.089-2.396,0.006
					c-2.094-0.268-4.499-0.097-5.465,1.673c-1.984,3.634,4.553,4.494,6.677,5.066C334.71,481.729,339.356,482.795,338.792,478.646z"
					/>
				<g>
					<path fill="#755446" d="M285.163,528.514c3.72-0.633,9.435,4.438,12.881,1.575c-1.185-1.309-3.931-0.541-5.553-0.875
						c-1.621-0.333-2.745-1.276-4.196-2.063c-1.421-0.771-9.245-2.036-7.536-4.661c0.868-1.332,10.794,1.199,10.381-2.076
						c-0.183-1.441-8.899,0.485-10.196,0.421c-6.345-0.316-0.116-7.238,0.017-10.262c-2.292,0.138-1.771,2.747-3.242,3.6
						c-2.103,1.216-1.766-1.821-1.565-3.176c0.287-1.936,1.064-3.561,1.163-5.518c0.035-0.701,0.26-2.129,0.012-2.771
						c-0.303-0.785-1.229-0.906-1.576-1.643c-0.521-1.104,0.381-4.942-1.827-3.576c-1.366,0.846-0.677,3.881-0.748,5.23
						c-0.204,3.848-0.539,7.319-0.454,11.268c0.114,5.34-2.679,5.284-2.679,5.284c-2.09-0.084-5.121-0.225-6.078-0.225
						c-4.593-0.006-7.996,1.296-11.025,4.829c-4.238,4.946-8.343,6.78-14.664,5.966c-3.658-0.472-8.024-1.042-11.037,1.679
						c-1.229,1.11-2.578,3.657-1.201,5.025c1.44-0.744,2.279-2.054,3.908-2.609c1.786-0.609,3.513-0.348,5.289,0.006
						c3.799,0.756,7.558,2.714,11.549,2.351c5.035-0.459,7.823-4.601,11.676-7.371c3.171-2.28,7.501-2.854,11.273-2.063
						c2.672,0.56,5.021,2.67,7.583,3.856c2.532,1.173,4.708,2.203,7.353,2.593c2.924,0.43,6.276,1.266,9.065,2.067
						c2.072,0.597,10.949,2.701,8.398,0.042C298.645,534.707,286.34,532.525,285.163,528.514z"/>
				</g>
			</g>
			<path opacity="0.4" fill="#FFFFFF" d="M312.881,179.138c-2.801-8.126-23.964-3.584-30.212-3.584
				c-10.729,0-20.69-2.479-31.042-2.069c-5.311,0.211-9.832-0.027-12.933,4.849c-0.243,0.381-0.457,0.794-0.642,1.227
				c-1.147,1.439-1.815,3.131-1.615,4.964c0.774,7.103,9.497,6.314,14.499,5.554c11.398-1.731,21.769-2.797,33.802-2.797
				C290.155,187.281,316.848,190.646,312.881,179.138z"/>
			<path opacity="0.6" fill="#FFFFFF" d="M281.289,249.365c-0.011-7.27,8.118-27.357,1.378-32.435
				c-3.811-2.87-8.674-0.189-8.343,3.868c-0.048,0.133-0.095,0.271-0.138,0.413c-0.092-0.045-0.2-0.063-0.332-0.046
				c-0.117,0.806-0.148,1.589-0.131,2.36c-0.907,7.569,1.914,21.115,2.045,23.773c0.613,12.457-1.312,24.726-0.704,37.232
				c0.609,12.532,1.341,24.733,0.707,37.265c-0.247,4.862-4.649,34.71,4.88,29.867c5.928-3.012,2.329-26.97,2.053-32.779
				c-0.58-12.238,1.322-23.501,1.345-35.717C284.069,271.594,281.306,260.921,281.289,249.365z"/>
			<path opacity="0.6" fill="#FFFFFF" d="M275.615,401.28c-9.102-2.76-11.794,4.459-15.775,10.23
				c-1.439,2.085-6.594,8.029-8.236,9.958c-3.518,2.326-10.21,8.584-13.05,10.681c-10.188,7.523-20.675,12.901-27.106,24.176
				c-8.578,15.038,7.639,16.298,18.795,15.851c15.236-0.611,21.453-8.045,28.784-20.679
				C263.32,444.096,295.217,407.224,275.615,401.28z"/>
			<path fill="#578485" d="M361.208,180.255c-2.354-3.967-4.466-2.523-5.417,0.725c-1.062,3.624-0.153,6.309-3.321,9.401
				c-2.405,2.348-7.158,4.341-10.476,5.281c-7.067,2.002-15.45,1.701-22.995,2.04c-5.456,0.244-43.334-0.34-45.455,2.249
				c-3.135,3.826,23.054,2.685,26.241,2.962c7.214,0.627,28.893,0.984,36.09,0.35c11.83-1.042,18.887-1.848,24.618-13.3
				C361.798,187.353,362.864,183.046,361.208,180.255z"/>
		</g>
	</g>
</g>
<g id="Star-elix">
</g>
<g id="Moon-elix">
</g>
<g id="Rainbow-elix">
</g>
<g id="Lucky-elix">
</g>
<g id="Heart-elix">
</g>
</svg>
