<?xml version="1.0" encoding="utf-8"?>
<!-- Generator: Adobe Illustrator 16.0.0, SVG Export Plug-In . SVG Version: 6.00 Build 0)  -->
<!DOCTYPE svg PUBLIC "-//W3C//DTD SVG 1.1//EN" "http://www.w3.org/Graphics/SVG/1.1/DTD/svg11.dtd">
<svg version="1.1" xmlns="http://www.w3.org/2000/svg" xmlns:xlink="http://www.w3.org/1999/xlink" x="0px" y="0px" width="600px"
	 height="600px" viewBox="0 0 600 600" enable-background="new 0 0 600 600" xml:space="preserve">
<g id="Colour_Pallete">
</g>
<g id="FlipMe_logo">
	<linearGradient id="SVGID_1_" gradientUnits="userSpaceOnUse" x1="300.0005" y1="501.0811" x2="300.0005" y2="91.5322">
		<stop  offset="0" style="stop-color:#2E3D85"/>
		<stop  offset="0.5188" style="stop-color:#76BC69"/>
		<stop  offset="1" style="stop-color:#32ABA2"/>
	</linearGradient>
	<rect display="none" fill="url(#SVGID_1_)" width="600" height="600"/>
	<g>
		<g>
			<path fill="#F1DBE7" d="M302.404,509.859c-1.223-23.445-3.257-55.315-2.443-81.69l0,0c-0.671,0-2.4,5.483-3.841,12.185
				c0,0-9.591,44.596-14.882,63.644l-20.389,76.245c-1.771,6.622-8.828,12.04-15.683,12.04h-12.928
				c-6.855,0-13.888-5.425-15.628-12.055l-16.465-62.71c-1.741-6.63-4.523-17.496-6.184-24.147c0,0-9.6-38.46-13.67-65.201l0,0
				c-0.671,0-1.457,5.604-1.746,12.452c0,0-1.917,45.426-3.546,69.971l-3.827,73.272c-0.357,6.846-6.258,12.446-13.113,12.446
				H136.99c-6.855,0-12.012-5.591-11.46-12.423l17.938-222.056c0.552-6.832,6.612-12.423,13.467-12.423h31.245
				c6.855,0,13.803,5.446,15.439,12.103l16.028,65.178c1.637,6.656,4.336,17.544,5.999,24.194c0,0,11.63,46.52,16.515,74.36l0,0
				c0.448,0,1.829-5.516,3.069-12.258c0,0,7.92-43.057,15.248-74.194l18.648-77.268c1.608-6.663,8.533-12.115,15.388-12.115h31.246
				c6.855,0,12.842,5.596,13.305,12.436l15.006,222.03c0.463,6.84-4.768,12.436-11.623,12.436h-22.695
				c-6.855,0-12.78-5.6-13.167-12.443L302.404,509.859z"/>
		</g>
		<g>
			<path fill="#F1DBE7" d="M413.827,523.778c0.815,27.841,18.725,38.098,42.333,38.098c15.061,0,28.493-2.931,37.855-5.86
				l4.733,22.243c1.427,6.704-2.868,13.463-9.545,15.019c0,0-22.46,5.231-42.813,5.231c-54.136,0-83.849-32.237-83.849-88.284
				c0-60.076,34.599-95.978,79.779-95.978c42.738,0,67.568,30.406,67.568,84.621c0,12.821,0,12.821,0,12.821
				c-0.896,6.648-7.237,12.089-14.093,12.089H413.827z M461.452,490.077c0-23.078-6.512-41.029-22.386-41.029
				c-17.505,0-22.64,28.76-22.64,28.76c-1.205,6.748,3.418,12.27,10.273,12.27H461.452z"/>
		</g>
		<g>
			<g>
				<path fill="#F1DBE7" d="M84.357,74.061c0-4.113,3.365-7.478,7.478-7.478h104.307c4.113,0,7.478,3.365,7.478,7.478v26.805
					c0,4.113-3.365,7.478-7.478,7.478h-50.985c-4.113,0-7.478,3.365-7.478,7.478v48.417c0,4.113,3.365,7.478,7.478,7.478h46.916
					c4.113,0,7.478,3.365,7.478,7.478v24.974c0,4.113-3.365,7.478-7.478,7.478h-46.916c-4.113,0-7.478,3.365-7.478,7.478v86.88
					c0,4.113-3.365,7.479-7.478,7.479H91.835c-4.113,0-7.478-3.365-7.478-7.479V74.061z"/>
			</g>
		</g>
		<g>
			<g>
				<path fill="#F1DBE7" d="M218.177,67.468c0-4.113,3.365-7.478,7.478-7.478h38.366c4.113,0,7.478,3.365,7.478,7.478v238.538
					c0,4.113-3.365,7.479-7.478,7.479h-38.366c-4.113,0-7.478-3.365-7.478-7.479V67.468z"/>
			</g>
		</g>
		<g>
			<g>
				<path fill="#F1DBE7" d="M398.233,191.134c0-19.938,0.134-37.85,0.154-53.014c0.002-1.276,0.003-2.531,0.003-3.766l0,0
					c2.313,0,7.571,0,11.685,0h27.887c4.113,0,7.547,3.364,7.63,7.477l0.113,5.561c0.083,4.112,0.335,7.477,0.559,7.477
					s2.774-2.392,5.667-5.315c0,0,17.941-18.129,36.259-18.129c43.961,0,61.869,42.493,61.869,92.313
					c0,63.74-31.341,92.68-64.719,92.68c-16.282,0-27.271-9.158-32.97-17.584l0,0c-0.448,0-0.814,3.365-0.814,7.478v70.03
					c0,4.113-3.365,7.479-7.479,7.479h-38.365c-4.113,0-7.479-3.365-7.479-7.479V191.134z M451.556,247.914
					c0,6.227,0.814,11.722,2.849,15.386c4.07,10.99,10.991,13.919,17.097,13.919c18.724,0,25.236-24.91,25.236-53.116
					c0-34.068-8.955-52.385-24.83-52.385c-8.141,0-15.874,6.961-17.909,15.386c-2.035,3.664-2.11,5.351-2.11,5.351
					c-0.183,4.109-0.332,10.836-0.332,14.949V247.914z"/>
			</g>
		</g>
		<g>
			<g>
				<path fill="#F1DBE7" d="M368.395,60.722c4.113,0,7.314,3.361,7.114,7.469l-7.996,164.193c-0.2,4.108-3.729,7.469-7.843,7.469
					h-38.364c-4.113,0-7.643-3.361-7.843-7.469l-7.996-164.193c-0.2-4.108,3.001-7.469,7.114-7.469H368.395z"/>
			</g>
			<g>
				<path fill="#F1DBE7" d="M367.148,306.469c0,4.113-3.365,7.479-7.479,7.479h-38.364c-4.113,0-7.479-3.365-7.479-7.479v-38.365
					c0-4.113,3.365-7.478,7.479-7.478h38.364c4.113,0,7.479,3.365,7.479,7.478V306.469z"/>
			</g>
		</g>
		<g>
			<radialGradient id="SVGID_2_" cx="68.6841" cy="437.123" r="52.4507" gradientUnits="userSpaceOnUse">
				<stop  offset="0" style="stop-color:#FFFFFF"/>
				<stop  offset="1" style="stop-color:#FFFFFF;stop-opacity:0"/>
			</radialGradient>
			<circle opacity="0.4" fill="url(#SVGID_2_)" cx="68.684" cy="437.124" r="52.45"/>
			<circle fill="#C2DBCD" cx="65.981" cy="447.747" r="16.914"/>
		</g>
		<g>
			
				<radialGradient id="SVGID_3_" cx="377.6895" cy="107.9355" r="58.499" gradientTransform="matrix(-1 0 0 -1 851.834 167.9258)" gradientUnits="userSpaceOnUse">
				<stop  offset="0" style="stop-color:#FFFFFF"/>
				<stop  offset="1" style="stop-color:#FFFFFF;stop-opacity:0"/>
			</radialGradient>
			<circle opacity="0.4" fill="url(#SVGID_3_)" cx="474.145" cy="59.99" r="58.5"/>
			<circle fill="#C2DBCD" cx="477.161" cy="48.142" r="18.866"/>
		</g>
		<g>
			
				<radialGradient id="SVGID_4_" cx="371.7539" cy="-256.6182" r="37.7354" gradientTransform="matrix(-0.7071 0.7071 -0.7071 -0.7071 627.4443 -41.4673)" gradientUnits="userSpaceOnUse">
				<stop  offset="0" style="stop-color:#FFFFFF"/>
				<stop  offset="1" style="stop-color:#FFFFFF;stop-opacity:0"/>
			</radialGradient>
			<circle opacity="0.4" fill="url(#SVGID_4_)" cx="546.032" cy="402.856" r="37.734"/>
			<circle fill="#C2DBCD" cx="542.003" cy="396.077" r="12.169"/>
		</g>
	</g>
</g>
<g id="Snake-elix">
</g>
<g id="Eyes-elix">
</g>
<g id="Star-elix">
</g>
<g id="Moon-elix">
</g>
<g id="Rainbow-elix">
</g>
<g id="Lucky-elix">
</g>
<g id="Heart-elix">
</g>
</svg>
