<?xml version="1.0" encoding="utf-8"?>
<!-- Generator: Adobe Illustrator 16.0.0, SVG Export Plug-In . SVG Version: 6.00 Build 0)  -->
<!DOCTYPE svg PUBLIC "-//W3C//DTD SVG 1.1//EN" "http://www.w3.org/Graphics/SVG/1.1/DTD/svg11.dtd">
<svg version="1.1" xmlns="http://www.w3.org/2000/svg" xmlns:xlink="http://www.w3.org/1999/xlink" x="0px" y="0px" width="600px"
	 height="600px" viewBox="0 0 600 600" enable-background="new 0 0 600 600" xml:space="preserve">
<g id="Colour_Pallete">
</g>
<g id="FlipMe_logo">
</g>
<g id="Snake-elix">
</g>
<g id="Eyes-elix">
</g>
<g id="Star-elix">
</g>
<g id="Moon-elix">
</g>
<g id="Rainbow-elix">
</g>
<g id="Lucky-elix">
</g>
<g id="Heart-elix">
	<g>
		<ellipse opacity="0.4" fill="#4D7372" cx="300.349" cy="556.928" rx="208.847" ry="36.967"/>
		<ellipse opacity="0.4" fill="#4D7372" cx="300.348" cy="547.78" rx="138.764" ry="27.821"/>
		<g>
			<path fill="#BACAD3" d="M407.622,531.473c-8.463-7.549-35.387-12.307-42.604-15.566c-12.699-5.734-13.582-18.024-13.582-18.024
				v-47.519h-52.724h-0.409h-52.723v47.519c0,0-0.883,12.29-13.581,18.024c-7.218,3.26-34.142,8.018-42.604,15.566
				c-2.289,2.043-7.605,9.008-5.324,11.061c23.902,21.513,109.736,19.392,114.438,19.259c4.7,0.133,90.534,2.254,114.438-19.259
				C415.228,540.48,409.912,533.516,407.622,531.473z"/>
			<path fill="#72AEAF" d="M298.713,551.383c-4.533,0.128-84.544,2.104-111.663-17.059c-2.219,2.882-4.381,6.764-2.773,8.209
				c23.902,21.513,109.736,19.392,114.437,19.259c4.701,0.133,90.536,2.254,114.438-19.259c1.606-1.445-0.556-5.327-2.773-8.209
				C383.258,553.487,303.247,551.511,298.713,551.383z"/>
			<path opacity="0.4" fill="#FFFFFF" d="M291.034,535.259c-3.484-6.024-15.209-3.4-22-4.117
				c-8.956-0.945-14.798-5.411-22.718-8.555c-6.688-2.654-16.414-1.728-23.362,0.237c-0.432,0.122-1.168,0.397-2.088,0.786
				c-7.873,1.607-19.581,5.037-16.665,11.16c3.506,7.357,23.979,5.288,31.518,5.918
				C243.312,541.322,300.202,551.102,291.034,535.259z"/>
			<path opacity="0.3" fill="#4D7372" d="M314.03,509.809c6.804,0.982,13.841-0.522,20.521,0.799
				c5.296,1.047,12.089,4.717,17.979,3.298c1.921-0.463,4.414-0.768,5.544-2.463c-5.827-5.457-6.639-13.561-6.639-13.561
				l0.072-34.073c-7.188-6.303-18.744-6.989-29.947-3.337c-6.699,2.185-34.167,15.375-28.836,23.123l-4.916,4.915
				C296.11,497.231,300.518,507.858,314.03,509.809z"/>
			<path fill="#BACAD3" d="M351.87,40.311h-17.563c0-18.891-15.314-34.205-34.204-34.205c-18.892,0-34.206,15.314-34.206,34.205
				h-17.563l-26.27,44.242l32.065,30.313v27.036h45.973h45.972v-27.036l32.064-30.313L351.87,40.311z"/>
			<path fill="#BACAD3" d="M356.15,125.966c-20.756-0.932-91.545-0.932-112.301,0c-9.331,0.42-8.081,4.276-8.056,8.153
				c0.038,5.664,10.136,8.65,13.208,13.565c3.073,4.915,0,74.961,0,74.961l50.999,27.198l50.998-27.198c0,0-3.072-70.046,0-74.961
				c3.071-4.915,13.171-7.901,13.208-13.565C364.232,130.242,365.481,126.386,356.15,125.966z"/>
			<path fill="#72AEAF" d="M460.191,203.146c-73.372-36.506-160.19,24.22-160.19,24.22s-86.818-60.726-160.19-24.22
				c-58.562,29.136-71.669,141.589-15.139,191.461c56.532,49.871,175.329,103.944,175.329,103.944s118.797-54.073,175.327-103.944
				C531.86,344.734,518.751,232.281,460.191,203.146z"/>
			<path fill="#BACAD3" d="M449.931,216.048c-65.851-32.764-149.93,25.884-149.93,25.884s-80.441-60.525-147.473-30.251
				c-64.09,28.946-77.832,126.791-9.882,180.348c53.136,41.881,157.354,93.289,157.354,93.289s118.856-55.38,169.593-100.139
				C520.329,340.421,502.487,242.197,449.931,216.048z"/>
			<path opacity="0.3" fill="#FFFFFF" d="M499.297,300.462c-2.951-36.18-20.864-70.163-49.095-84.21
				c-43.793-21.788-95.304-3.968-125.13,10.964c3.969,2.084,7.512,4.811,10.798,8.331c10.418,11.164,16.193,25.731,19.68,40.418
				c2.432,10.239-1.801,25.369,11.181,28.384c15.454,3.589,35.936,0.846,51.632,0.031c21.813-1.131,43.589-0.958,65.45-1.857
				C489.648,302.282,494.44,301.664,499.297,300.462z"/>
			<path fill="#E63D25" d="M494.887,277.031c-20.241-2.892-40.741,4.915-61.523,7.866c-41.366,5.874-79.763-8.689-120.868-8.238
				c-21.381,0.234-42.221,5.68-63.111,8.833c-24.645,3.72-47.639,0.739-71.662-5.781c-19.809-5.375-39.65-12.828-60.424-12.884
				c-4.043-0.01-8.881,0.242-13.902,0.881c-13.813,40.475-3.295,91.37,39.251,124.903c53.136,41.881,157.354,93.29,157.354,93.29
				s118.856-55.38,169.593-100.139C499.386,359.48,505.531,314.765,494.887,277.031z"/>
			<path fill="#D03527" d="M495.349,277.031c-2.273-0.325-5.01-0.29-7.29-0.367c4.204,32.952-4.153,67.911-29.114,89.932
				c-50.737,44.759-169.594,100.139-169.594,100.139s-104.219-51.409-157.354-93.29c-10.269-8.093-18.667-17.2-25.313-26.926
				c7.28,17.011,19.104,33.024,35.963,46.312c53.136,41.881,157.354,93.289,157.354,93.289S418.858,430.74,469.594,385.98
				C499.386,359.699,505.991,314.765,495.349,277.031z"/>
			<path fill="#CD2027" d="M323.393,356.086c2.341-10.729-13.955-18.823-23.224-20.593c-12.836-2.45-24.717,2.229-28.307,15.855
				c-3.226,12.244,0.629,25.349,5.791,36.707c3.172,6.975,7.852,14.143,13.188,19.572c4.516,4.598,7.085,2.913,13.606,2.931
				c17.75,0.049,38.949-0.926,51.984-14.373c14.835-15.302-0.482-35.873-17.083-39.478c-4.392-0.954-13.844-3.212-17.732-0.031
				L323.393,356.086z"/>
			<path fill="#B11F24" d="M359.698,372.099c0.106,4.831-1.648,9.77-5.997,14.256c-13.035,13.446-34.234,14.421-51.983,14.373
				c-6.522-0.019-9.092,1.666-13.607-2.931c-5.336-5.431-10.018-12.599-13.187-19.572c-1.194-2.624-2.315-5.345-3.298-8.124
				c1.209,6.204,3.455,12.297,6.029,17.955c3.17,6.975,7.85,14.143,13.186,19.572c4.517,4.598,7.085,2.913,13.606,2.931
				c17.752,0.049,38.949-0.926,51.985-14.373C363.838,388.547,363.729,379.597,359.698,372.099z"/>
			<path fill="#EE2524" d="M310.941,351.956c-0.628-1.293-1.606-2.391-2.8-3.293c-4.023-5.709-15.713-6.234-20.479-1.892
				c-5.806,5.289-4.39,21.049-1.264,27.398c5.859,11.906,11.046-2.146,15.528-6.662C307.01,362.386,315.243,360.809,310.941,351.956
				z"/>
			<path fill="#F04C2C" d="M245.586,368.146c-1.044-1.38-2.097-2.765-3.11-4.175c0.322,0.548,0.652,1.082,0.993,1.597
				C244.033,366.416,244.772,367.273,245.586,368.146z"/>
			<path fill="#F04C2C" d="M495.349,277.031c-20.242-2.892-40.743,4.915-61.525,7.866c-41.365,5.874-79.764-8.689-120.867-8.238
				c-21.38,0.234-42.221,5.68-63.111,8.833c-24.646,3.72-47.639,0.739-71.662-5.781c-19.809-5.375-39.649-12.828-60.423-12.884
				c-4.025-0.01-9.368,0.249-14.364,0.881c2.822,5.398,6.368,10.367,11.858,14.37c5.91,4.308,12.3,6.313,18.945,7.411
				c-1.244,9.104-5.842,17.863-5.04,27.329c1.185,14.015,14.615,19.524,24.701,26.221c10.662,7.079,13.738,15.312,18.022,26.717
				c2.744,7.306,5.742,16.452,13.735,21.118c1.874,1.095,10.51,2.438,12.17,2.178c-16.834-4.994-19.264-22.845-23.64-35.267
				c-4.337-12.312-13.972-18.563-24.465-25.08c-3.638-2.261-8.364-4.194-11.002-7.713c-2.937-3.917-2.887-9.208-2.949-13.906
				c-0.098-7.438,3.621-13.946,5.921-20.685c4.416,0.397,8.902,0.627,13.402,1.063c17.341,1.683,32.591,7.563,49.293,12.455
				c11.171,3.272,22.496,4.746,33.843,4.703c1.604,5.319,4.091,9.381,2.104,15.98c-2.2,7.3-5.163,13.536-5.019,21.28
				c0.134,7.141,3.392,12.797,7.199,18.088c-2.695-4.587-4.596-10.251-4.332-15.608c0.678-13.768,8.684-24.864,7.283-38.917
				c-0.035-0.348-0.056-0.704-0.082-1.056c4.736-0.281,9.474-0.82,14.2-1.593c-0.776,1.886-1.222,4.106-1.35,5.086
				c-0.991,7.579,2.783,13.139,4.025,20.095c1.312,7.348-3.119,13.976-4.823,20.889c-3.189,12.938,0.836,25.291,11.248,32.792
				c-4.131-4.292-7.109-9.127-8.063-15.584c-2.105-14.274,10.178-24.95,6.657-38.917c-1.712-6.795-3.456-12.521-2.378-19.663
				c0.184-1.211,0.771-3.843,0.33-5.722c0.044-0.009,0.089-0.017,0.134-0.025c20.783-4.24,40.676-9.395,61.955-6.145
				c7.95,1.214,16.047,3.257,24.194,5.119c0.482,4.724,2.294,10.774,2.188,13.327c-0.54,13.008-11.471,26.74-0.573,38.327
				c-0.863-2.499-1.895-5.129-1.905-8.014c-0.015-3.944,1.312-7.934,2.58-11.461c2.654-7.384,8.415-16.611,8.502-24.588
				c0.011-1.097-0.331-3.229-0.991-5.515c2.861,0.544,5.724,1.012,8.583,1.367c0.998,4.128,3.53,9.151,3.968,10.283
				c2.68,6.92-0.377,12.851-4.287,18.763c-4.751,7.181-4.663,13.488-2.266,21.891c1.965,6.893,5.704,13.2,6.053,20.393
				c0.389,8.013-4.444,16.081-10.232,21.302c-12.649,11.412-33.57,15.156-49.986,15.156h-0.409c3.067,0.789,12.089,0.471,16.796,0
				c6.058-0.604,12.136-0.756,18.023-2.469c11.312-3.289,21.321-7.63,27.538-18.424c7.036-12.215-0.421-24.931-2.936-37.276
				c-1.416-6.948-1.46-13.229,2.526-19.23c4.246-6.394,6.053-10.527,5.644-18.456c-0.108-2.116-0.863-7.122-2.43-11.268
				c2.592,0.093,5.18,0.065,7.758-0.133c2.453-0.188,4.874-0.55,7.275-1.021c0.031,0.175,0.058,0.345,0.095,0.531
				c1.356,6.748,1.682,13.238-0.818,19.672c-2.694,6.935-8.493,11.741-11.582,18.435c-6.413,13.896,2.569,26.711,2.569,40.964
				l-2.048,7.374c2.601-4.595,5.042-8.026,4.506-13.519c-0.466-4.771-2.239-9.544-3.276-14.347
				c-1.464-6.769-1.274-12.909,2.755-18.835c4.084-6.007,8.524-11.508,11.891-18.023c3.168-6.134,6.196-13.683,3.889-20.492
				c-0.393-1.161-0.965-2.271-1.624-3.256c9.101-2.455,18.029-5.985,27.385-7.823c5.628-1.106,11.123-1.163,16.593-0.876
				c-1.248,5.549,5.504,10.77,7.521,15.673c2.596,6.31,0.771,15.074-1.739,21.302c-4.896,12.144-16.881,18.935-26.874,26.636
				c-7.521,5.796-16.053,14.053-14.809,24.549l-0.821,4.111c2.465-8.136,7.259-16.969,14.021-22.033
				c8.252-6.182,18.189-9.378,26.854-14.953c11.576-7.445,15.371-21.611,12.7-34.308c-1.414-6.722-6.951-12.171-6.873-19.253
				c0.003-0.314,0.029-0.639,0.065-0.966c4.442,0.37,8.907,0.692,13.453,0.596c13.711-0.292,24.804-8.117,29.347-19.111
				C495.84,278.823,495.601,277.924,495.349,277.031z"/>
			<path opacity="0.6" fill="#FFFFFF" d="M202.026,221.319c-6.954-2.969-16.756-1.742-25.585,2.622
				c-0.116,0.032-0.231,0.061-0.346,0.095c-11.247,3.342-22.213,13.729-30.644,25.115c-9.32,12.587-18.159,28.664-20.329,44.434
				c-1.553,11.289,0.656,22.479,8.978,25.223c7.141,2.353,11.377-6.025,15.541-13.853c5.398-10.147,10.058-18.833,17.598-27.113
				c6.671-7.327,13.316-11.11,21.121-13.781c6.488-2.221,16.167-5.717,21.093-13.281
				C218.249,237.274,210.478,224.929,202.026,221.319z"/>
			<path fill="#567F7E" d="M294.357,452.613c0,0,104.782-41.14,125.652-60.985c32.031-30.454,37.281-44.106,43.582-77.711
				c4.976-26.531-3.95-58.538-3.95-58.538s20.892,23.963,19.662,59.6c-0.848,24.571-16.373,60.492-40.553,79.263
				C392.054,430.493,294.357,452.613,294.357,452.613z"/>
			<path opacity="0.6" fill="#FFFFFF" d="M149.715,351.063c-1.462-6.923-10.242-22.644-18.451-22.118
				c-6.068,0.389-7.456,5.789-7.374,11.059c0.004,0.205,0.01,0.405,0.017,0.602c0,0.004-0.001,0.009-0.001,0.013
				c-0.99,6.582,2.349,11.708,6.28,17.065c3.243,4.419,7.692,10.629,13.98,8.138C149.92,363.543,150.79,356.154,149.715,351.063z"/>
			<polygon opacity="0.3" fill="#4D7372" points="340.556,40.311 351.87,40.311 378.14,84.553 358.989,84.553 			"/>
			<polygon opacity="0.3" fill="#4D7372" points="331.544,40.311 345.881,84.553 328.813,84.553 322.121,40.311 			"/>
			<polygon opacity="0.3" fill="#4D7372" points="300.001,84.553 300.104,40.311 305.326,40.311 313.108,84.553 			"/>
			<path opacity="0.6" fill="#FFFFFF" d="M289.349,10.497c-3.796,1.573-8.533,3.991-10.363,7.692
				c-0.32,0.649-0.621,1.541-0.858,2.538c-1.508,2.103-2.489,4.344-2.614,6.463c-0.529,8.933,8.075,7.68,11.676,2.06
				c2.332-3.639,3.976-6.43,7.896-8.502c2.787-1.472,6.853-1.714,8.181-4.618C306.996,7.976,293.475,8.788,289.349,10.497z"/>
			<polygon opacity="0.6" fill="#FFFFFF" points="248.335,40.311 222.065,84.553 238.144,84.553 253.711,40.311 			"/>
			<polygon opacity="0.6" fill="#FFFFFF" points="261.903,40.311 251.253,84.553 266,84.553 269.276,40.311 			"/>
			<polygon opacity="0.6" fill="#FFFFFF" points="283.205,40.311 278.699,84.553 289.699,84.553 289.699,40.311 			"/>
			<path opacity="0.6" fill="#FFFFFF" d="M318.053,132.926c-3.744-2.477-11.338,0.308-15.362,0.49
				c-5.777,0.262-50.861-2.298-55.783-1.796c-6.303-1.059-5.184,4.548-0.128,6.199c4.711,1.538,10.38,0.446,15.359,0.648
				c11.171,0.454,18.338,0.535,29.668,0.977C295.802,139.6,329.745,140.66,318.053,132.926z"/>
			<path opacity="0.6" fill="#FFFFFF" d="M276.917,179.019c-1.044-6.964,1.024-24.039-5.41-28.414
				c-4.478-3.045-9.592-0.497-10.595,4.455c-0.003,0.019-0.006,0.038-0.009,0.057c-1.705,6.481,1.807,19.008,1.85,22.676
				c0.101,8.425-3.644,25.198,9.08,25.328C282.394,203.229,277.95,185.909,276.917,179.019z"/>
			<path opacity="0.3" fill="#4D7372" d="M295.933,151.371c7.889,1.861,20.018,0.183,25.056,8.139
				c4.524,7.145,3.64,20.928,3.208,29.343c-0.188,3.697-2.425,12.127,0,15.374c2.355,3.152,8.193,0.874,11.675-1.243
				c8.057-4.896,3.461-17.958,3.042-26.421c-0.257-5.124-0.468-10.869,0.032-15.973c0.414-4.212,6.282-7.26,5.297-11.302
				c-12.337-0.718-19.088-2.344-26.189-1.635c-8.209,0.818-16.483,1.271-24.497,1.968c1.015,5.351,8.736,1.548,12.208,4.208
				L295.933,151.371z"/>
			<polygon opacity="0.3" fill="#4D7372" points="257.367,114.913 254.131,114.866 222.065,84.553 378.14,84.553 346.075,114.866 
				346.075,125.268 305.737,125.272 254.131,114.866 254.131,114.866 			"/>
		</g>
	</g>
</g>
</svg>
