<?xml version="1.0" encoding="utf-8"?>
<!-- Generator: Adobe Illustrator 16.0.0, SVG Export Plug-In . SVG Version: 6.00 Build 0)  -->
<!DOCTYPE svg PUBLIC "-//W3C//DTD SVG 1.1//EN" "http://www.w3.org/Graphics/SVG/1.1/DTD/svg11.dtd">
<svg version="1.1" xmlns="http://www.w3.org/2000/svg" xmlns:xlink="http://www.w3.org/1999/xlink" x="0px" y="0px" width="600px"
	 height="600px" viewBox="0 0 600 600" enable-background="new 0 0 600 600" xml:space="preserve">
<g id="Colour_Pallete">
</g>
<g id="FlipMe_logo">
</g>
<g id="Snake-elix">
</g>
<g id="Eyes-elix">
</g>
<g id="Star-elix">
</g>
<g id="Moon-elix">
</g>
<g id="Rainbow-elix">
</g>
<g id="Lucky-elix">
	<g>
		<ellipse opacity="0.4" fill="#4D7372" cx="300" cy="554.832" rx="295.711" ry="38.868"/>
		<ellipse opacity="0.4" fill="#4D7372" cx="297.597" cy="545.216" rx="216.374" ry="29.251"/>
		<g>
			<g>
				<path fill="#B58A4D" d="M200.2,151.903c0,0-19.097-38.726-12.215-42.439c6.884-3.713,215.879-4.695,219.814,0
					c8.002,9.546-11.674,44.231-11.674,44.231L200.2,151.903z"/>
				<path opacity="0.5" fill="#724B3C" d="M407.8,109.464c-2.065-2.464-60.601-3.364-116.764-3.127
					c43.585,0.194,81.088,1.165,82.733,3.127c7.563,9.022-9.593,40.491-11.5,43.921l33.856,0.31
					C396.126,153.695,415.802,119.01,407.8,109.464z"/>
				<path fill="#D8A05E" d="M263.432,111.721c-15.924,1.467-32.093,1.439-47.584,2.407c-5.572,0.349-18.104,1.199-17.959,5.669
					c0.013,0.406,0.132,0.757,0.327,1.069c0.398,1.668,3.186,3.368,8.05,3.948c7.633,0.909,17.067-0.369,24.585-0.386
					c15.591-0.036,36.259,2.072,51.209-2.951C304.34,113.991,275.668,110.594,263.432,111.721z"/>
			</g>
			<path fill="#72AEAF" d="M490.794,300.878c-2.726-66.011-40.8-71.188-49.99-72.64c-27.14-4.286-34.538-19.521-34.538-19.521
				v-31.206c0,0,16.36,0,16.36-16.717c0-10.104-10.907-13.954-10.907-13.954H176.311c0,0-10.906,3.851-10.906,13.954
				c0,16.717,16.359,16.717,16.359,16.717v31.206c0,0-7.398,15.234-34.539,19.521c-9.191,1.452-47.263,6.629-49.99,72.64
				c-2.727,66.01-4.544,226.539,0,234.458c4.545,7.919,29.086,15.117,29.086,15.117h335.389c0,0,24.541-7.198,29.085-15.117
				C495.339,527.417,493.521,366.889,490.794,300.878z"/>
			<path fill="#BACAD3" d="M472.184,298.189c-2.463-64.648-35.861-62.256-44.166-63.678c-24.521-4.197-32.206-26.58-32.206-26.58
				l0.025-30.037H192.971v30.037c0,0-2.502,23.822-27.023,28.02c-8.305,1.421-46.885-2.41-49.348,62.238
				c-2.464,64.649-4.107,221.862,0,229.618c4.105,7.754,26.278,14.804,26.278,14.804h303.028c0,0,22.172-7.05,26.277-14.804
				C476.291,520.051,474.648,362.838,472.184,298.189z"/>
			<polygon fill="#D8A05E" points="207.823,177.939 211.489,195.528 384.252,195.465 388.891,177.939 			"/>
			<polygon opacity="0.4" fill="#724B3C" points="357.267,177.895 350.97,195.477 384.252,195.465 388.891,177.939 			"/>
			<path fill="#88BF40" d="M394.483,268.656c-20.339,1.747-39.243,11.3-61.782,10.092c-20.172-1.082-38.38-6.793-59.09-6.337
				c-23.106,0.509-43.547,8.458-66.001,10.671c-25.169,2.48-57.852-11.951-86.848-13.06c-2.258,7.483-4.343,16.63-4.771,27.857
				c-2.463,64.647-4.105,221.862,0,229.617c4.106,7.755,26.304,15.84,26.304,15.84l304.517-0.663c0,0,22.298-7.504,26.404-15.259
				c4.105-7.755,2.066-164.768-0.398-229.416c-0.488-12.825-2.688-23.08-5.175-31.182c-4.499,1.333-9.85,2.503-14.586,3.414
				C433.014,274.085,414.444,266.941,394.483,268.656z"/>
			<path fill="#9ECC3F" d="M193.406,427.149c-5.322-11.494-10.099-18.332-8.997-32.217c1.681-21.177,12.597-37.249,29.927-50.007
				c39.541-29.111,101.477-26.708,145.98-10.719c31.861,11.447,62.654,41.749,59.105,78.153
				c-1.864,19.131-24.691,29.785-41.33,32.389c31.422,0.037,65.848-20.086,63.863-54.936c-2.396-42.126-43.724-73.446-80.782-84.634
				c-28.692-8.663-63.522-11.625-93.343-6.726c-34.611,5.687-73.547,19.776-98.52,44.749c-18.211,18.21-28.252,41.582-24.332,67.595
				c2.251,14.936,7.656,27.595,19.422,36.944c7.718,6.135,15.761,9.408,25.485,11.072c7.211,1.232,32.763,5.541,35.909-2.093
				L193.406,427.149z"/>
			<path fill="#9ECC3F" d="M449.545,433.627c-11.552-8.399-28.807,12.952-36.505,19.624c-23.016,19.953-57.374,24.437-86.013,28.779
				c-37.795,5.733-77.759,4.7-115.472-0.818c-16.202-2.371-34.004-6.061-48.974-13.05c-12.241-5.716-16.986-15.46-24.097-25.522
				l-2.816-14.786c-1.435,5.115-0.749,11.116,0,16.193c7.351,49.903,67.333,63.96,109.856,71.859
				c30.998,5.756,66.197,4.947,97.851,2.057c33.135-3.026,73.827-12.669,97.032-38.724
				C448.414,470.249,464.352,444.393,449.545,433.627z"/>
			<path fill="#5A7B37" d="M341.373,369.902c12.929-22.681-25.906-25.313-37.099-10.348c-7.36,9.842-13.206,26.621-16.977,42.141
				c2.571-14.578,3.709-30.118-4.94-41.142c-6.105-7.784-17.756-14.083-27.462-9.237c-11.436,5.707-9.311,19.951-6.759,29.232
				c-15.067-7.898-43.429,9.803-26.567,28.358c13.378,14.722,49.693,18.168,49.693,18.168c-11.095-0.774-55.671,6.709-65.418,13.516
				c-24.415,17.046-2.581,35.846,20.654,30.213c-10.563,25.348,16.085,39.448,31.126,27.899
				c11.996-9.211,18.873-40.269,18.165-54.337c0.688,9.184,3.77,20.514,8.582,31.201c-3.459,8.331-9.139,16.266-10.151,25.513
				c-1.274,11.671,1.672,20.84,11.268,28.076c1.218-2.686,3.664-4.621,6.404-5.701c-8.377-7.657-15.043-15.125-11.35-27.319
				c1.147-3.792,4.354-8.571,7.365-13.438c5.031,9.267,11.351,17.494,18.482,22.607c7.546,5.412,24.203,9.641,30.473,0
				c6.059-9.314-2.594-21.198-6.047-29.412c9.756-0.493,22.031,2.558,29.252-5.676c7.14-8.138,6.672-18.512-0.791-25.348
				c-16.865-15.449-45.146-6.77-64.137-16.694c21.199-3.429,49.146-1.18,68.362-13.438
				C389.879,397.91,365.405,369.093,341.373,369.902z"/>
			<path fill="#BBD646" d="M202.978,329.209c-24.124,13.213-45.798,29.99-48.313,59.778c-0.8,9.465,0.082,18.971,3.158,27.412
				c1.399,6.83,3.883,13.373,8.262,19.199c5.639,7.502,24.532,13.14,21.709-1.445c-2.287-11.817-15.701-20.307-19.067-32.353
				C161.351,375.408,181.57,343.625,202.978,329.209z"/>
			<g>
				<path fill="#BBD646" d="M418.723,347.412c-7.248-7.793-16.921-15.162-25.882-20.402c-4.976-2.91-25.285-15.641-30.346-7.449
					c-3.477,5.631,11.002,9.805,21.953,13.973l-8.678-4.959c3.05,1.672,5.97,3.322,8.781,4.998
					c5.332,2.034,9.812,4.066,10.933,6.268l-10.217-5.839c12.551,7.56,22.837,15.749,32.028,29.038
					c9.244,13.363,15.522,33.179,10.7,49.111C436.824,391.351,435.211,365.138,418.723,347.412z"/>
				<path fill="#BBD646" d="M384.448,333.533l0.819,0.468c-0.239-0.143-0.478-0.286-0.716-0.429
					C384.518,333.56,384.482,333.547,384.448,333.533z"/>
			</g>
			<path fill="#BBD646" d="M438.276,456.878c-2.464-8.096-12.59,0.983-16.935,4.208c-9.054,6.721-16.401,14.948-26,21.104
				c-13.381,8.58-31.637,19.252-48.44,17.482l-0.703,0.704c1.333,0,4.225,0,4.927,0c2.549,0,5.21,0.224,7.746,0
				c12.748-1.127,26.705-6.256,38.688-11.932C406.749,484.092,442.816,471.798,438.276,456.878z"/>
			<g>
				<path fill="#BBD646" d="M143.414,460.946c-0.017,4.097,3.525,6.34,6.817,8.102c-1.237-1.285-2.358-2.58-3.296-3.876
					L143.414,460.946z"/>
				<path fill="#BBD646" d="M182.859,484.182c-9.958-2.284-21.369-9.024-30.311-13.905c-0.721-0.395-1.512-0.798-2.317-1.229
					c7.372,7.662,19.349,14.945,27.612,19.516c4.938,2.731,29.276,15.931,33.199,7.623
					C216.377,484.887,187.191,485.176,182.859,484.182z"/>
			</g>
			<path fill="#BBD646" d="M177.212,299.706c-16.198,11.382-33.343,21.068-42.279,40.542c-1.914,4.173-5.459,15.789-2.077,20.01
				c5.396,6.734,9.816-3.542,11.791-7.759c10.428-22.269,14.076-41.928,38.866-52.987c1.935-0.864,5.807-2.216,6.373-2.621
				L177.212,299.706z"/>
			<path fill="#BBD646" d="M454.118,354.47c-7.394-11.704-16.681-22.743-28.219-30.294c-5.665-3.709-11.537-7.789-17.037-11.796
				l9.153,9.857c11.912,7.176,21.651,23.126,25.154,36.066c1.579,5.824,2.98,32.654,11.476,31.541
				C466.989,388.229,457.449,359.741,454.118,354.47z"/>
			<path fill="#BBD646" d="M455.881,480.101c-5.039-1.705-9.678,5.679-12.657,8.977c-9.604,10.633-20.945,23.91-35.769,26.085
				l-19.715,3.521c7.238,3.162,22.193-1.212,29.021-3.366c12.566-3.965,34.321-9.528,41.916-21.454
				C460.891,490.388,461.221,481.905,455.881,480.101z"/>
			<g>
				<path fill="#BBD646" d="M363.801,294.777c4.192-1.153,7.455-2.931,11.014-4.224c-0.15,0-0.302,0-0.453,0L363.801,294.777z"/>
				<path fill="#BBD646" d="M445.317,302.524c-6.531-17.143-50.861-15.431-65.284-13.341c-1.887,0.273-3.582,0.775-5.219,1.37
					c13.773,0.002,27.981,0.113,40.402,6.511c7.585,3.907,14.82,9.63,22.512,13.065C443.414,312.669,448.211,310.12,445.317,302.524
					z"/>
			</g>
			<path fill="#729C3F" d="M268.197,393.353c-0.436-2.764-0.51-6.487-1.472-9.664c-0.604-4.29-2.146-7.891-5.692-8.678
				c-8.657-1.92-6.867,9.235-5.819,13.569c2.912,12.05,12.637,24.424,23.302,31.049C272.13,413.62,269.629,402.393,268.197,393.353z
				"/>
			<path fill="#729C3F" d="M250.423,440.6c-2.794,0.137-6.503-0.191-9.765,0.422c-4.33,0.138-8.077,1.282-9.241,4.723
				c-2.844,8.399,8.44,7.824,12.862,7.25c12.293-1.597,25.643-9.929,33.38-19.817C270.996,438.876,259.566,440.152,250.423,440.6z"
				/>
			<path fill="#729C3F" d="M299.232,464.471c0.615,2.729,0.93,6.44,2.096,9.548c0.882,4.241,2.654,7.734,6.244,8.289
				c8.763,1.355,6.254-9.661,4.927-13.918c-3.689-11.835-14.197-23.551-25.269-29.47
				C293.99,444.501,297.217,455.542,299.232,464.471z"/>
			<path fill="#729C3F" d="M319.908,400.898c2.728-0.624,6.438-0.949,9.542-2.124c4.238-0.894,7.727-2.676,8.271-6.267
				c1.329-8.768-9.68-6.227-13.932-4.889c-11.825,3.723-23.512,14.265-29.398,25.353
				C299.954,406.194,310.985,402.938,319.908,400.898z"/>
			<path opacity="0.5" fill="#FFFFFF" d="M220.162,225.224c-13.303,3.513-30.604,8.772-41.543,17.449
				c-2.4,1.904-3.862,3.698-4.599,5.344c-2.571,2.467-4.125,5.449-2.632,8.772c2.369,5.273,13.755,5.396,18.306,4.736
				c15.408-2.234,37.911-8.972,48.756-20.401C253.079,225.706,231.982,222.104,220.162,225.224z M218.832,230.625l2.033-2.034
				C220.258,229.334,219.571,230.005,218.832,230.625z"/>
			<path opacity="0.3" fill="#FFFFFF" d="M193.95,285.624c-2.337-9.167-16.542-17.093-25.188-17.603
				c-8.896-0.524-16.938,4.772-19.176,11.835c-3.67,7.093-5.071,16.554-5.451,24.046c-1.27,25.04,5.251,49.669,1.549,74.854
				c-1.511,10.271-2.413,20.984-2.99,31.336c-0.415,7.457-2.347,16.444,2.043,23.201c5.377,8.278,17.819,9.316,26.17,5.295
				c7.655-3.686,11.477-13.26,12.796-21.396c3.814-23.524-0.858-49.322-0.858-73.124c0-13.88,4.032-24.755,8.273-37.878
				C193.137,299.934,195.663,292.337,193.95,285.624z"/>
			<path opacity="0.5" fill="#FFFFFF" d="M293.387,155.914c-7.681-3.974-26.232-0.104-34.673,0.311
				c-14.703,0.723-29.021-1.406-43.483-2.112c-9.84-0.481-21.948-1.184-31.68,0.55c-3.121,0.556-11.563,3.102-9.189,8.48
				c1.336,3.028,5.736,2.597,9.602,1.797c3.164,0.324,6.462,0.201,8.035,0.279c12.228,0.608,24.256-1.33,36.615-0.718
				c12.721,0.63,26.125,2.028,38.881,1.441c6.75-0.311,13.79-1.024,20.262-2.679C292.752,161.986,300.688,159.691,293.387,155.914z"
				/>
			<g opacity="0.6">
				<path opacity="0.6" fill="#4D7372" d="M448.784,392.307c0-34.071,0.745-69.268-4.054-102.492
					c-2.005-13.881-5.324-28.909-19.916-34.583c-6.188-2.406-14.426-3.024-21.147-3.786c-8.37-0.949-20.727,3.809-6.929,6.904
					c31.63,7.093,27.705,22.706,28.049,29.334c1.172,22.559,2.645,44.929,3.626,67.165c1.281,29.018,1.897,58.396-0.749,87.316
					c-1.702,18.598-0.392,40.127-4.775,57.881c-2.281,9.246-26.787,27.729-6.74,29.732c17.139,1.713,26.744-15.849,28.818-29.755
					C450.124,465.447,448.784,427.557,448.784,392.307z"/>
			</g>
		</g>
	</g>
</g>
<g id="Heart-elix">
</g>
</svg>
