<?xml version="1.0" encoding="utf-8"?>
<!-- Generator: Adobe Illustrator 16.0.0, SVG Export Plug-In . SVG Version: 6.00 Build 0)  -->
<!DOCTYPE svg PUBLIC "-//W3C//DTD SVG 1.1//EN" "http://www.w3.org/Graphics/SVG/1.1/DTD/svg11.dtd">
<svg version="1.1" xmlns="http://www.w3.org/2000/svg" xmlns:xlink="http://www.w3.org/1999/xlink" x="0px" y="0px" width="600px"
	 height="600px" viewBox="0 0 600 600" enable-background="new 0 0 600 600" xml:space="preserve">
<g id="Colour_Pallete">
</g>
<g id="FlipMe_logo">
</g>
<g id="Snake-elix">
</g>
<g id="Eyes-elix">
</g>
<g id="Star-elix">
</g>
<g id="Moon-elix">
	<g>
		<ellipse opacity="0.4" fill="#4D7372" cx="300" cy="559.27" rx="245.542" ry="34.519"/>
		<ellipse opacity="0.4" fill="#4D7372" cx="303.859" cy="550.729" rx="185.348" ry="25.978"/>
		<g>
			<path fill="#B58A4D" d="M215.789,59.298c0,0-16.891-45.08-10.802-49.403c6.087-4.322,190.938-5.465,194.418,0
				c7.078,11.113-10.324,51.49-10.324,51.49L215.789,59.298z"/>
			<path fill="#724B3C" d="M399.406,9.895c-1.827-2.868-53.6-3.917-103.275-3.64c38.551,0.225,71.721,1.354,73.177,3.64
				c6.688,10.503-8.485,47.137-10.173,51.129l29.946,0.361C389.081,61.384,406.483,21.007,399.406,9.895z"/>
			<path fill="#72AEAF" d="M465.33,286.723c-2.316-70.77-34.644-76.321-42.447-77.876c-23.045-4.596-29.327-20.929-29.327-20.929
				V92.181c0,0,13.892,0,13.892-17.922c0-10.832-9.261-14.96-9.261-14.96H198.303c0,0-9.262,4.128-9.262,14.96
				c0,17.922,13.892,17.922,13.892,17.922v95.737c0,0-6.283,16.333-29.326,20.929c-7.804,1.555-40.132,7.106-42.447,77.876
				c-2.314,70.77-3.858,242.871,0,251.36s24.696,16.207,24.696,16.207h284.778c0,0,20.837-7.718,24.696-16.207
				C469.188,529.594,467.645,357.492,465.33,286.723z"/>
			<path fill="#BACAD3" d="M449.722,283.757c-2.092-69.308-30.45-66.744-37.501-68.268c-20.822-4.5-27.348-28.497-27.348-28.497
				l0.063-94.809l-175.598,0.378c1.884,0.667,3.306,0.67,3.306,0.67v93.761c0,0-2.125,25.54-22.947,30.04
				c-7.05,1.523-39.809-2.584-41.901,66.724c-2.092,69.309-3.486,237.857,0,246.17c3.486,8.314,22.314,15.873,22.314,15.873h257.299
				c0,0,18.827-7.559,22.313-15.873C453.208,521.614,451.814,353.066,449.722,283.757z"/>
			<path fill="#5A65AE" d="M450.47,284.718c-0.228-7.549-0.997-14.897-1.786-20.839c-16.224-0.448-32.432-4.541-48.887-2.406
				c-43.461,5.638-87.624-0.95-131.779-0.943c-26.338,0.003-51.646,8.011-77.987,6.943c-14.241-0.577-27.73-2.29-41.275-2.216
				c-0.755,5.502-1.267,11.636-1.474,18.501c-2.092,69.309-3.486,237.856,0,246.171c3.486,8.313,22.313,15.872,22.313,15.872h257.3
				c0,0,20.089-6.868,23.575-15.183C453.956,522.305,452.561,354.026,450.47,284.718z"/>
			<path opacity="0.2" fill="#72AEAF" d="M412.221,215.49c-20.82-4.5-27.348-28.497-27.348-28.497l-0.454-95.172l-109.728,0.741
				c0.005,0.792,0.021,1.564,0.055,2.297c0.773,15.912,0.127,32.042,0.173,47.996c0.111,38.641-8.614,79.376,15.831,112.96
				c9.358,12.856,42.239,9.625,54.186,20.583c20.837,19.115,22.986,47.378,24.25,61.586c5.099,57.338,4.951,121.372-6.516,176.174
				c-3.869,18.489-42.431,26.24-65.854,31.643h130.593c0,0,18.827-7.559,22.313-15.873c3.486-8.313,2.093-176.861,0-246.17
				C447.63,214.449,419.271,217.013,412.221,215.49z"/>
			<path opacity="0.6" fill="#FFFFFF" d="M230.144,222.617c-5.821-7.161-17.373-4.32-24.671-2.066
				c-4.553,1.406-10.543,3.885-16.262,7.216c-9.666,3.474-18.315,8.708-23.122,19.314c-5.411,11.942-9.831,39.939-1.521,51.195
				c11.477,15.542,32.813,10.117,34.757-7.974c2.291-21.309,4.878-33.362,22.411-47.615
				C228.378,237.287,236.949,230.987,230.144,222.617z"/>
			<path opacity="0.6" fill="#4D7372" d="M336.679,68.54c1.737,17.765-27.931,25.746-41.16,24.183c0,0,15.089-0.514,22.124-0.514
				c7.814,0,75.913-0.028,75.913-0.028s13.892,0,13.892-17.922c0-10.832-9.261-14.96-9.261-14.96h-67.175
				C333.399,62.338,336.383,65.512,336.679,68.54z"/>
			<path opacity="0.6" fill="#FFFFFF" d="M255.383,65.454c-9.588-1.449-21.371-2.351-30.871-1.033
				c-4.732,0.656-10.812,1.28-14.947,3.991c-2.695,1.768-3.277,3.486-2.568,4.768c-0.012,0.905,0.496,1.899,1.693,2.988
				c3.313,3.012,11.789,0.754,15.696,0.578c5.319-0.239,10.724,0.027,16.052,0.027c6.879,0,22.691,3.728,28.311-1.16
				C277.026,68.41,259.535,66.081,255.383,65.454z"/>
			<g opacity="0.6">
				<path opacity="0.6" fill="#4D7372" d="M431.631,375.707c0-36.528,0.799-74.262-4.345-109.881
					c-2.149-14.883-5.71-30.994-21.353-37.075c-6.635-2.58-15.467-3.243-22.672-4.06c-8.975-1.017-22.221,4.084-7.43,7.401
					c33.911,7.605,29.703,24.343,30.072,31.45c1.256,24.185,2.834,48.168,3.888,72.007c1.373,31.109,2.032,62.604-0.805,93.61
					c-1.824,19.938-0.42,43.02-5.117,62.054c-2.446,9.913-28.719,29.729-7.227,31.877c18.374,1.836,28.671-16.992,30.896-31.901
					C433.067,454.121,431.631,413.498,431.631,375.707z"/>
			</g>
			<g>
				<path opacity="0.2" fill="#FFFFFF" d="M337.835,314.063c-0.04-0.017-0.081-0.028-0.121-0.044
					c4.166,4.866,5.583,11.813,3.085,18.195c-3.59,9.175-13.908,13.72-23.092,10.2c1.849,2.159,4.238,3.911,7.069,5.019
					c9.216,3.606,19.61-0.94,23.216-10.155C351.598,328.063,347.051,317.669,337.835,314.063z"/>
				<circle opacity="0.2" fill="#FFFFFF" cx="331.307" cy="330.749" r="17.918"/>
			</g>
			<g>
				<path opacity="0.2" fill="#FFFFFF" d="M252.927,242.431c-0.049,0-0.098,0.003-0.147,0.004
					c6.402,3.412,10.762,10.152,10.762,17.914c0,11.156-9.004,20.206-20.141,20.286c2.84,1.514,6.083,2.375,9.526,2.375
					c11.205,0,20.289-9.083,20.289-20.289S264.132,242.431,252.927,242.431z"/>
				<circle opacity="0.2" fill="#FFFFFF" cx="252.926" cy="262.721" r="20.29"/>
			</g>
			<g>
				<path opacity="0.2" fill="#FFFFFF" d="M339.207,139.239c-0.035-0.014-0.069-0.026-0.104-0.039
					c3.458,4.167,4.563,10.057,2.366,15.417c-3.155,7.707-11.934,11.41-19.649,8.315c1.534,1.849,3.53,3.36,5.908,4.334
					c7.74,3.169,16.584-0.536,19.754-8.275C350.651,151.251,346.947,142.408,339.207,139.239z"/>
				<circle opacity="0.2" fill="#FFFFFF" cx="333.468" cy="153.253" r="15.144"/>
			</g>
			<g>
				<path opacity="0.2" fill="#FFFFFF" d="M409.237,437.996c-0.032,0-0.063,0.003-0.096,0.003c4.21,2.244,7.077,6.677,7.077,11.78
					c0,7.337-5.922,13.289-13.246,13.341c1.868,0.996,4,1.563,6.265,1.563c7.369,0,13.343-5.974,13.343-13.344
					C422.58,443.971,416.606,437.996,409.237,437.996z"/>
				<circle opacity="0.2" fill="#FFFFFF" cx="409.237" cy="451.339" r="13.343"/>
			</g>
			<g>
				<path opacity="0.2" fill="#FFFFFF" d="M208.057,485.848c-0.039,0-0.076,0.003-0.115,0.003c5.021,2.677,8.443,7.964,8.443,14.052
					c0,8.752-7.064,15.852-15.801,15.913c2.228,1.188,4.771,1.863,7.473,1.863c8.791,0,15.916-7.125,15.916-15.915
					C223.973,492.973,216.848,485.848,208.057,485.848z"/>
				<circle opacity="0.2" fill="#FFFFFF" cx="208.057" cy="501.764" r="15.916"/>
			</g>
			<g>
				<path opacity="0.2" fill="#FFFFFF" d="M385.568,280.708c-0.031,0-0.063,0.002-0.096,0.002c4.211,2.244,7.077,6.677,7.077,11.781
					c0,7.337-5.922,13.289-13.246,13.341c1.868,0.996,4.001,1.563,6.265,1.563c7.37,0,13.344-5.974,13.344-13.344
					C398.912,286.682,392.938,280.708,385.568,280.708z"/>
				<circle opacity="0.2" fill="#FFFFFF" cx="385.569" cy="294.051" r="13.343"/>
			</g>
			<path fill="#B58A4D" d="M130.127,327.404h40.393l-5.402,17.783l5.402,9.99v14.526l6.945-12.212v-12.305l4.631-13.163l38.587-4.62
				l10.805,29.316v9.261v15.604l6.946-18.689v-17.708v-17.783h26.239h25.185l30.382,27.091v41.164c0,0-9.262-0.421-11.576,0
				c-2.315,0.421-15.436,6.032-15.436,6.032l-11.576,1.474l11.576,5.264l11.577-5.264l12.348,5.264v30.038l3.087,25.528
				l-4.63,30.099h-81.034l-9.394-14.664l14.023-6.945l-8.489-14.663l-5.534-10.806l3.99,20.066l-8.489,5.402l4.499,17.75
				l-96.02,3.464l-1.055-85.593L130.127,327.404z"/>
			<path fill="#D8A05E" d="M289.857,327.404c0,0,6.519,6.524,6.519,16.354c0,4.115,0.372,10.087-4.803,14.805
				c-0.761,0.693,8.575,2.401,18.181,1.029c9.604-1.372,10.485-5.097,10.485-5.097L289.857,327.404z"/>
			<g>
				<path fill="#724B3C" d="M136.632,384.319l5.687,0.085c2.78,0.042,4.832,0.607,6.152,1.694c1.969,1.608,2.928,4.096,2.878,7.464
					c-0.053,3.493-0.96,6.006-2.726,7.539c-0.8,0.689-1.69,1.172-2.671,1.447c-0.981,0.273-2.279,0.398-3.896,0.374l-6.134-0.092
					l2-1.485l0.229-15.343L136.632,384.319z M136.799,404.028l-0.211-0.393l5.283,0.078c2.598,0.039,4.576-0.292,5.933-0.994
					c2.919-1.495,4.412-4.452,4.479-8.868c0.044-2.955-0.573-5.158-1.851-6.611l-0.568-0.644c-0.019-0.02-0.075-0.088-0.17-0.205
					c2.021,1.311,3.004,3.774,2.95,7.393c-0.058,3.801-1.109,6.586-3.157,8.354c-1.569,1.362-4.11,2.018-7.622,1.965
					L136.799,404.028z M140.986,385.598l-0.242,16.193l0.795,0.013l0.228-15.242c0.501-0.069,0.96-0.101,1.372-0.095
					c0.789,0.013,1.411,0.101,1.865,0.266c0.455,0.166,0.911,0.465,1.365,0.895c-1.012-0.496-2.1-0.753-3.266-0.771
					c-0.25-0.004-0.576,0.011-0.98,0.043l-0.225,14.909c1.078,0.017,1.898-0.061,2.458-0.229c0.562-0.17,1.096-0.507,1.603-1.009
					c1.417-1.394,2.15-3.76,2.201-7.099c0.049-3.262-0.675-5.501-2.166-6.717c-0.904-0.735-2.347-1.117-4.329-1.147L140.986,385.598
					z"/>
				<path fill="#724B3C" d="M154.705,386.322c2.3-1.284,4.764-1.906,7.391-1.867c2.04,0.03,3.715,0.498,5.024,1.403
					s1.954,2.041,1.934,3.407c-0.017,1.116-0.464,2.099-1.343,2.947c-0.879,0.848-2.072,1.453-3.579,1.815
					c0.637,1.838,1.513,3.632,2.627,5.381c1.113,1.749,2.237,3.094,3.368,4.035l-0.219,0.068c-1.439,0.47-2.854,1.141-4.244,2.016
					l-0.219,0.142l-0.065-0.464c-0.56-3.733-1.375-6.901-2.442-9.507l-0.056-0.145c-0.669,0.298-1.563,0.53-2.681,0.696
					l-0.116,0.012l-0.081,5.398l2.5,2.751l-7.462-0.111l-0.226-0.393l6.871,0.103l-2.06-2.254l0.087-5.817l0.304-0.038
					c1.1-0.099,2.021-0.302,2.767-0.608c-0.057-0.116-0.088-0.189-0.098-0.219l-0.138-0.42c-0.01-0.029-0.033-0.087-0.069-0.175
					c-0.6,0.165-1.729,0.335-3.387,0.513l-0.16,0.027l-0.096,6.437l1.62,1.742l-6.38-0.096l1.902-1.689l0.072-4.85l-0.115,0.013
					c-0.561,0.117-1.068,0.248-1.521,0.396l-0.116,0.042l-0.125-0.29c0.425-0.157,0.759-0.263,1.001-0.317l0.768-0.177l0.115-0.026
					l0.011-0.75c-0.567-0.01-1.276,0.105-2.127,0.343l-0.159,0.055c0.021-0.134,0.121-0.445,0.303-0.933
					c0.02-0.039,0.09-0.254,0.211-0.646c0.012-0.029,0.025-0.072,0.046-0.13c0.433,0.035,0.769,0.056,1.009,0.059
					c0.26,0.004,0.501-0.007,0.723-0.032l0.106-7.102c-0.438-0.276-0.893-0.509-1.361-0.699L154.705,386.322z M159.069,386.012
					l-0.116,7.78c0.278,0.004,0.544-0.016,0.795-0.061l0.106-7.101c0.53-0.137,1.167-0.199,1.908-0.188
					c1.877,0.028,3.142,0.663,3.797,1.905c-0.704-0.588-1.322-0.995-1.858-1.22c-0.535-0.224-1.178-0.343-1.929-0.354
					c-0.588-0.008-1.104,0.042-1.547,0.15l-0.103,6.813l0.16-0.026c1.899-0.318,3.316-0.843,4.246-1.575s1.404-1.694,1.422-2.888
					c0.016-1.068-0.385-1.957-1.202-2.667s-1.856-1.074-3.116-1.094C160.621,385.473,159.768,385.647,159.069,386.012z
					 M165.911,394.776c0.577,1.991,1.62,3.946,3.132,5.865c0.943,1.198,2.146,2.279,3.604,3.244
					c-2.214,0.554-4.296,1.418-6.247,2.592l-0.131,0.085l-0.285-0.235c1.854-1.175,3.827-2.031,5.914-2.568
					c-2.744-1.889-4.88-4.875-6.406-8.959l-0.083-0.247c2.961-1.072,4.46-2.753,4.493-5.043c0.014-0.943-0.351-1.979-1.095-3.106
					c0.96,0.9,1.428,2.033,1.408,3.399C170.183,392.016,168.748,393.674,165.911,394.776z"/>
				<path fill="#724B3C" d="M178.394,388.342c0.147,0.127,0.28,0.268,0.399,0.421l0.021-1.531l1.495-1.436l-0.242-0.292
					l-1.654,1.592L178.394,388.342z"/>
				<path fill="#724B3C" d="M175.113,386.859c0.201,0.134,0.404,0.266,0.619,0.377c0.053,0.029,0.107,0.056,0.16,0.082
					c0.472,0.176,0.951,0.319,1.437,0.45c0.129,0.034,0.245,0.091,0.364,0.143l0.016-1.014l1.963-1.935l-6.842-0.102l1.965,1.82
					C174.903,386.732,175.01,386.79,175.113,386.859z"/>
				<path fill="#724B3C" d="M177.483,401.923l0.129-8.659c-0.593,0.241-1.267,0.307-1.925,0.13c-0.325-0.089-0.65-0.186-0.973-0.291
					l-0.13,8.646l-2.032,1.63l6.727,0.101L177.483,401.923z"/>
				<path fill="#724B3C" d="M178.596,401.939l0.142-9.471c-0.125,0.145-0.263,0.274-0.41,0.391l-0.14,9.219l1.945,2.209
					l-7.014-0.105l0.355,0.396l7.505,0.112L178.596,401.939z"/>
				<path fill="#724B3C" d="M198.334,385.242c-1.104,0.552-1.82,1.062-2.145,1.527c-0.492,0.725-0.749,1.822-0.771,3.295
					l-0.014,0.938l-0.19,12.716l-2.44-0.036l-6.613-13.323l-0.118,7.838l-0.023,0.649l0.142,2.08
					c0.178,0.966,0.605,1.685,1.281,2.156l0.114,0.103c-1.32-0.463-1.964-1.892-1.928-4.287l0.034-1.356l0.119-7.896l-0.757-1.526
					l-0.125,8.313c-0.039,2.637,0.108,4.366,0.442,5.19c0.334,0.822,1.139,1.432,2.412,1.825l1.234,1.361l-7.821-0.117l-0.226-0.393
					l7.231,0.108l-0.739-0.806l-6.726-0.101c1.181-0.405,1.969-0.962,2.363-1.668c0.396-0.706,0.607-1.925,0.633-3.657l0.172-11.547
					l-1.895-1.631l7.302,0.109l-2.069,1.341l6.782,13.729l0.026-1.732l-5.816-11.751l2.042-1.342l0.27,0.278l-1.809,1.186
					l5.324,10.85l0.102-6.741l0.012-0.764c0.024-1.675-0.096-2.795-0.361-3.362s-0.934-1.118-2.004-1.654L198.334,385.242z
					 M198.824,386.318l-0.268,0.429c-0.744,0.162-1.251,0.475-1.521,0.938c-0.273,0.463-0.416,1.247-0.433,2.354l-0.223,14.881
					l-3.104-0.046l-0.182-0.393l2.902,0.043l0.215-14.346c0.021-1.357,0.209-2.3,0.568-2.829
					C197.139,386.82,197.82,386.477,198.824,386.318z"/>
				<path fill="#724B3C" d="M199.734,385.264l6.754,0.102l-2.033,1.874l-0.131,8.718l0.808-0.897l0.114-7.692l1.641-1.549
					l0.211,0.32l-1.507,1.421l-0.106,7.059l4.555-5.273c0.656-0.761,0.988-1.448,0.998-2.064c0.006-0.365-0.173-0.717-0.533-1.054
					c-0.361-0.338-0.801-0.563-1.318-0.678l0.002-0.144l7.607,0.113l-0.003,0.145c-1.671,0.38-3.485,1.709-5.444,3.989l-2.041,2.352
					l5.171,10.429l2.4,1.609l-7.491-0.112l1.913-1.386l-3.473-7.212l-2.396,2.836l-0.062,4.128l2.313,2.793l-7.405-0.111
					l-0.384-0.396l6.928,0.104l-1.8-2.235l0.067-4.475l2.557-3.051l-0.309-0.641l-3.039,3.507l-0.067,4.488l1.723,1.6l-6.61-0.099
					l2.002-1.659l0.227-15.112L199.734,385.264z M217.496,386.844c-1.426,0.074-2.857,0.885-4.295,2.433l-2.567,2.763l4.94,10.41
					l4.043,2.817l-9.18-0.137l-0.398-0.396l8.357,0.124l-3.043-2.139l-5.124-10.688l2.729-2.99c1.428-1.548,2.889-2.383,4.383-2.505
					L217.496,386.844z"/>
				<path fill="#724B3C" d="M235.113,385.604c2.338,0.036,4.193,0.949,5.566,2.74c1.375,1.792,2.039,4.169,1.995,7.132
					c-0.042,2.801-0.766,5.022-2.171,6.667c-1.406,1.644-3.273,2.448-5.603,2.413c-1.837-0.026-3.464-0.639-4.88-1.834
					c-2.083-1.764-3.098-4.343-3.046-7.74c0.043-2.905,0.799-5.204,2.269-6.896C230.712,386.396,232.669,385.568,235.113,385.604z
					 M235.095,386.846c-3.253-0.048-4.922,2.785-5.007,8.501c-0.079,5.282,1.482,7.948,4.688,7.996
					c1.491,0.022,2.639-0.661,3.438-2.049c0.801-1.389,1.221-3.431,1.261-6.124c0.046-3.051-0.298-5.183-1.03-6.396
					C237.674,387.511,236.557,386.868,235.095,386.846z M239.705,386.41c1.367,0.684,2.438,1.836,3.212,3.455
					c0.775,1.619,1.146,3.481,1.114,5.589c-0.045,3.099-0.87,5.589-2.471,7.471c-1.602,1.881-3.683,2.804-6.242,2.765
					c-1.636-0.024-3.158-0.601-4.564-1.729v-0.072c1.18,0.894,2.67,1.354,4.469,1.381c2.416,0.036,4.412-0.844,5.988-2.639
					c1.576-1.796,2.386-4.108,2.428-6.937c0.031-2.107-0.295-3.956-0.978-5.545c-0.685-1.588-1.67-2.782-2.957-3.581L239.705,386.41
					z M238.15,389.058l-0.243-0.147c-0.917-0.524-1.759-0.792-2.528-0.804c-2.53-0.038-3.833,2.431-3.908,7.405
					c-0.055,3.637,0.693,6.06,2.245,7.267l-0.132,0.142c-0.952-0.697-1.625-1.604-2.018-2.723c-0.392-1.116-0.574-2.623-0.545-4.519
					c0.08-5.341,1.523-7.989,4.335-7.948C236.635,387.75,237.568,388.192,238.15,389.058z"/>
				<path fill="#724B3C" d="M255.872,395.873c0.101-0.071,0.203-0.143,0.305-0.213l-3.873-7.893l1.808-1.186l-0.27-0.278
					l-2.041,1.341L255.872,395.873z"/>
				<path fill="#724B3C" d="M246.666,402.784c-0.396,0.706-1.185,1.262-2.365,1.668l4.373,0.065c0.02-0.147,0.047-0.298,0.09-0.453
					c0.102-0.37,0.233-0.732,0.391-1.089c-0.085-0.128-0.162-0.261-0.22-0.403c-0.334-0.822-0.481-2.553-0.442-5.188l0.125-8.314
					l0.756,1.528l-0.117,7.895l-0.035,1.355c-0.014,0.963,0.086,1.762,0.291,2.411c0.076-0.14,0.156-0.279,0.24-0.417l-0.141-2.045
					l0.025-0.649l0.116-7.837l3.342,6.729c0.453-0.395,0.911-0.765,1.355-1.106c0.253-0.195,0.513-0.392,0.776-0.589l-4.418-8.946
					l2.069-1.34l-7.304-0.109l1.896,1.631l-0.174,11.547C247.271,400.858,247.061,402.078,246.666,402.784z"/>
				<path fill="#724B3C" d="M260.373,388.3c-0.359,0.529-0.549,1.472-0.57,2.828l-0.037,2.54c0.129-0.05,0.26-0.101,0.393-0.145
					l0.037-2.533c0.017-1.106,0.161-1.892,0.433-2.354c0.271-0.463,0.778-0.774,1.522-0.937l0.266-0.43
					C261.413,387.428,260.732,387.771,260.373,388.3z"/>
				<path fill="#724B3C" d="M257.378,387.75c0.267,0.566,0.386,1.688,0.361,3.361l-0.053,3.575c0.418-0.246,0.845-0.476,1.28-0.679
					l0.044-2.992c0.022-1.473,0.28-2.57,0.771-3.295c0.325-0.467,1.04-0.976,2.146-1.527l-6.553-0.098
					C256.445,386.631,257.112,387.184,257.378,387.75z"/>
				<path fill="#724B3C" d="M259.668,400.149l-0.078,5.326l-2.901-0.044l0.182,0.393l3.103,0.047l0.09-5.96
					C259.932,399.986,259.801,400.068,259.668,400.149z"/>
				<path fill="#724B3C" d="M258.866,400.682c-1.149,0.813-2.251,1.804-3.085,2.771l0.587,1.181l2.438,0.037L258.866,400.682z"/>
				<path fill="#724B3C" d="M248.673,405.312l-4.138-0.062l0.225,0.394l4.005,0.06C248.726,405.576,248.693,405.447,248.673,405.312
					z"/>
				<path fill="#724B3C" d="M142.528,428.239l0.083-5.571c0.617-0.039,1.133-0.056,1.547-0.049c1.153,0.017,2.007,0.109,2.557,0.275
					c0.144,0.043,0.283,0.098,0.419,0.16c-0.04-0.12-0.082-0.241-0.116-0.361c-0.617-0.279-1.427-0.429-2.436-0.443
					c-0.675-0.011-1.31-0.006-1.906,0.015l-0.418,0.008l-0.091,5.961l-0.88-0.014l0.102-6.754l0.533,0.022l1.4,0.035l0.823-0.002
					c1.162,0.018,2.053,0.152,2.681,0.401c-0.111-0.521-0.189-1.047-0.237-1.577l-10.019-0.15l1.922,1.892l-0.091,6.09
					c-1.475,0.094-2.437,0.763-2.889,2.007l0.098,0.232c0.664-0.721,1.445-1.075,2.339-1.062c0.088,0.001,0.231,0.013,0.433,0.035
					l-0.01,0.679c-0.923-0.014-1.669,0.283-2.236,0.891l0.27,0.307c0.567-0.55,1.221-0.819,1.962-0.809l-0.094,6.207l-2.38,1.841
					l7.087,0.106l-1.82-1.904l0.109-7.274l3.305,0.05l2.389,2.432l0.092-6.047l-2.347,2.404L142.528,428.239z"/>
				<polygon fill="#724B3C" points="145.452,430.708 145.039,430.313 142.138,430.269 142.037,437.009 144.091,439.624 
					136.182,439.506 136.536,439.901 144.893,440.025 142.4,436.842 142.492,430.664 				"/>
				<polygon fill="#724B3C" points="147.635,432.4 148.007,432.623 148.1,426.388 147.728,426.166 				"/>
				<path fill="#724B3C" d="M169.118,420.683l-2.614,2.025l-0.14,9.323c-0.025,1.713-0.099,2.944-0.222,3.692
					c-0.122,0.749-0.35,1.361-0.684,1.838c-0.846,1.219-2.461,1.812-4.849,1.775c-2.521-0.038-4.272-0.68-5.254-1.927
					c-0.784-0.983-1.157-2.852-1.115-5.604l0.144-9.584l-1.937-1.79l6.813,0.102l-1.991,1.891l-0.143,9.439l-0.004,2.224
					c-0.021,1.434,0.262,2.455,0.85,3.065s1.588,0.926,3.004,0.947c1.558,0.023,2.639-0.417,3.238-1.322
					c0.482-0.734,0.742-2.318,0.779-4.753l0.197-9.338l-2.222-2.098L169.118,420.683z M169.595,421.671l-1.987,1.602l-0.134,8.963
					c-0.045,2.936-0.304,4.847-0.778,5.734c-0.971,1.795-2.826,2.672-5.568,2.631c-2.368-0.035-4.139-0.653-5.314-1.855l0.113,0.06
					l0.502,0.296c1.174,0.711,2.688,1.08,4.546,1.108c2.655,0.039,4.429-0.771,5.319-2.433c0.476-0.898,0.734-2.713,0.774-5.445
					l0.138-9.238l2.177-1.729L169.595,421.671z M159.854,421.323l-1.437,1.407l-0.159,10.724l-0.029,0.996l0.42,1.84
					c0.217,0.369,0.628,0.818,1.235,1.347l0.028,0.131c-0.804-0.34-1.355-0.824-1.653-1.454c-0.299-0.63-0.439-1.6-0.42-2.908
					l0.163-10.825l1.654-1.563L159.854,421.323z"/>
				<path fill="#724B3C" d="M170.504,420.703l6.898,0.104l-2.064,1.946l-0.23,15.429l0.115,0.003l0.521,0.051l0.129,0.002
					l0.229-15.329l1.582-1.55l0.197,0.321l-1.421,1.407l-0.228,15.155c0.434,0.045,0.847,0.07,1.241,0.076
					c1.529,0.023,2.691-0.299,3.486-0.966c0.794-0.666,1.337-1.776,1.63-3.332c0.865,2.641,1.768,4.449,2.705,5.426l-15.068-0.226
					l2.016-1.601l0.226-15.054L170.504,420.703z M186.712,439.352l-0.669,1.29l-15.068-0.226l-0.355-0.396l15.271,0.229l0.431-0.902
					c-1.038-1.315-1.864-2.776-2.474-4.383l-0.057-0.159l0.459,0.18l0.098,0.247c0.624,1.434,1.373,2.758,2.25,3.975
					L186.712,439.352z"/>
				<path fill="#724B3C" d="M189.369,420.984l-2.686-0.039l0.844,0.8C188.137,421.48,188.751,421.227,189.369,420.984z"/>
				<path fill="#724B3C" d="M198.77,434.263c-0.292,1.555-0.836,2.666-1.631,3.332c-0.793,0.667-1.955,0.989-3.486,0.966
					c-0.393-0.006-0.808-0.031-1.24-0.076l0.191-12.762c-0.114,0.101-0.236,0.194-0.365,0.281l-0.188,12.475l-0.129-0.002
					l-0.519-0.051l-0.115-0.002l0.179-12.018c-0.023,0.009-0.047,0.02-0.07,0.029c-0.955,0.353-1.888,0.756-2.82,1.165
					l-0.152,10.261l-2.016,1.602l15.068,0.226C200.537,438.712,199.636,436.903,198.77,434.263z"/>
				<path fill="#724B3C" d="M202.778,439.447c-0.877-1.216-1.628-2.541-2.251-3.975l-0.097-0.246l-0.46-0.181l0.056,0.16
					c0.611,1.606,1.436,3.067,2.476,4.382l-0.433,0.903l-15.27-0.229l0.354,0.396l15.068,0.225l0.668-1.289L202.778,439.447z"/>
				<path fill="#724B3C" d="M214.479,438.021c-0.078-0.257-0.125-0.635-0.15-1.107c-0.154,0.229-0.262,0.413-0.336,0.589
					c0.158,0.835,0.591,1.509,1.301,2.018l0.127,0.218c-0.695-0.208-1.213-0.503-1.556-0.882c0.001,0.011,0.001,0.019,0.001,0.03
					c0.019,0.346-0.043,0.677-0.161,0.985l1.743,0.026l0.521,0.802l-2.73-0.041c-0.116,0.139-0.246,0.268-0.386,0.384l3.832,0.058
					l-1.274-1.665C214.918,438.918,214.606,438.445,214.479,438.021z"/>
				<polygon fill="#724B3C" points="228.62,438.42 228.838,423.871 230.486,422.726 230.187,422.477 228.467,423.62 
					228.242,438.616 230.215,440.912 223.229,440.808 223.426,441.201 231.089,441.315 				"/>
				<path fill="#724B3C" d="M222.577,440.004l6.64,0.1l-1.751-1.716l0.223-14.823l2.007-1.977l-7.318-0.109l1.733,1.917
					l-3.878,10.235l-3.285-10.111l1.824-1.242l-0.301-0.251l-1.911,1.372l3.535,10.765l-0.538,1.248l-3.904-12.142l2.121-1.859
					l-7.462-0.111l1.878,1.817l-0.121,8.094c0.368-0.244,0.752-0.469,1.15-0.669l0.087-5.776l0.759,2.307l-0.046,3.104
					c0.124-0.052,0.251-0.096,0.378-0.144l0.026-1.814l0.527,1.633c1.438-0.308,2.952,0.799,3.308,2.172
					c0.367,1.419-0.35,2.678-1.533,3.322l1.479,4.58l1.011,0.016l5.591-14.743l-0.034,2.209l-5.021,13.351l-1.257-0.019l0.11,0.391
					l1.386,0.021l4.764-12.518l-0.146,9.714L222.577,440.004z"/>
				<path fill="#724B3C" d="M239.976,421.554c2.338,0.035,4.193,0.948,5.567,2.74c1.373,1.792,2.037,4.169,1.993,7.133
					c-0.042,2.8-0.767,5.022-2.171,6.666c-1.406,1.645-3.273,2.448-5.602,2.413c-1.839-0.027-3.465-0.639-4.882-1.834
					c-2.081-1.763-3.095-4.344-3.046-7.74c0.043-2.905,0.8-5.204,2.27-6.896C235.574,422.345,237.53,421.518,239.976,421.554z
					 M239.956,422.795c-3.253-0.048-4.921,2.785-5.007,8.501c-0.08,5.283,1.484,7.948,4.688,7.996
					c1.491,0.022,2.637-0.661,3.438-2.05c0.8-1.388,1.221-3.429,1.261-6.123c0.046-3.051-0.297-5.183-1.03-6.397
					C242.534,423.46,241.418,422.817,239.956,422.795z M244.568,422.359c1.366,0.685,2.436,1.836,3.211,3.455
					c0.774,1.619,1.146,3.481,1.115,5.589c-0.048,3.099-0.872,5.589-2.474,7.471c-1.601,1.881-3.683,2.803-6.241,2.765
					c-1.637-0.024-3.158-0.601-4.564-1.729l0.001-0.072c1.181,0.894,2.669,1.354,4.469,1.381c2.415,0.036,4.411-0.844,5.987-2.639
					c1.576-1.796,2.385-4.108,2.428-6.937c0.031-2.107-0.294-3.956-0.979-5.545c-0.684-1.588-1.669-2.782-2.956-3.58
					L244.568,422.359z M243.013,425.007l-0.243-0.147c-0.916-0.524-1.76-0.792-2.529-0.803c-2.531-0.039-3.833,2.43-3.908,7.404
					c-0.055,3.638,0.695,6.06,2.245,7.266l-0.132,0.143c-0.953-0.697-1.624-1.604-2.016-2.722c-0.394-1.118-0.576-2.624-0.547-4.521
					c0.079-5.34,1.525-7.989,4.334-7.947C241.498,423.699,242.429,424.142,243.013,425.007z"/>
				<path fill="#724B3C" d="M263.811,438.368c1.406-1.644,2.13-3.865,2.172-6.666c0.02-1.267-0.101-2.421-0.341-3.473
					c-0.063,0.177-0.158,0.425-0.175,0.489c-0.305,1.228-1.475,2.02-2.686,2.086c0,0.195,0.004,0.386,0.001,0.59
					c-0.04,2.694-0.462,4.736-1.263,6.124c-0.799,1.389-1.945,2.071-3.438,2.05c-3.203-0.048-4.766-2.714-4.688-7.997
					c0.087-5.715,1.755-8.549,5.008-8.5c1.129,0.017,2.051,0.408,2.766,1.166c0.317-0.465,0.666-0.909,1.037-1.332
					c-1.077-0.693-2.338-1.054-3.785-1.075c-2.443-0.036-4.399,0.791-5.869,2.482c-1.469,1.69-2.225,3.989-2.268,6.895
					c-0.052,3.397,0.965,5.978,3.045,7.741c1.417,1.195,3.043,1.807,4.881,1.834C260.537,440.817,262.404,440.013,263.811,438.368z"
					/>
				<path fill="#724B3C" d="M266.327,427.073c-0.015,0.021-0.04,0.055-0.072,0.1c0.477,1.403,0.717,2.978,0.69,4.746
					c-0.041,2.829-0.851,5.142-2.427,6.937s-3.573,2.676-5.988,2.64c-1.799-0.027-3.289-0.487-4.47-1.382v0.072
					c1.407,1.129,2.93,1.705,4.565,1.729c2.56,0.039,4.64-0.883,6.241-2.765s2.426-4.372,2.472-7.47
					c0.028-1.795-0.24-3.411-0.8-4.852C266.469,426.909,266.398,426.99,266.327,427.073z"/>
				<path fill="#724B3C" d="M258.686,424.331c0.639,0.01,1.328,0.205,2.064,0.566c0.046-0.079,0.096-0.154,0.143-0.231
					c-0.561-0.457-1.303-0.696-2.229-0.71c-2.812-0.042-4.256,2.607-4.335,7.947c-0.029,1.896,0.153,3.402,0.545,4.52
					c0.394,1.118,1.065,2.025,2.017,2.723l0.133-0.143c-1.552-1.206-2.299-3.629-2.245-7.266
					C254.854,426.762,256.156,424.294,258.686,424.331z"/>
				<path fill="#724B3C" d="M280.923,435.621l-0.025,1.709c0.446,0.243,0.839,0.602,1.119,1.097c0.053,0.095,0.088,0.2,0.131,0.302
					l0.171-11.488c0.022-1.473,0.279-2.57,0.771-3.295c0.325-0.466,1.039-0.975,2.145-1.526l-6.553-0.099
					c1.07,0.536,1.738,1.088,2.005,1.654c0.266,0.567,0.385,1.688,0.36,3.362l-0.111,7.506l-5.324-10.85l1.807-1.186l-0.27-0.278
					l-2.041,1.341L280.923,435.621z"/>
				<path fill="#724B3C" d="M269.973,439.009c-0.396,0.707-1.184,1.263-2.364,1.669l6.229,0.093c0.093-0.114,0.186-0.228,0.28-0.339
					c-0.964-0.391-1.592-0.934-1.876-1.634c-0.334-0.823-0.481-2.553-0.442-5.189l0.125-8.313l0.756,1.527l-0.118,7.895
					l-0.034,1.356c-0.034,2.271,0.549,3.661,1.733,4.196c0.014-0.016,0.027-0.031,0.041-0.045c-0.651-0.473-1.067-1.178-1.241-2.122
					l-0.143-2.081l0.024-0.649l0.117-7.837l4.879,9.827c0.029-0.016,0.056-0.032,0.085-0.046c0.936-0.463,2-0.455,2.856,0.004
					l-6.766-13.696l2.07-1.34l-7.304-0.11l1.896,1.632l-0.172,11.546C270.579,437.084,270.368,438.303,269.973,439.009z"/>
				<path fill="#724B3C" d="M283.681,424.525c-0.36,0.528-0.55,1.472-0.57,2.828l-0.214,14.347l-1.107-0.017
					c-0.107,0.141-0.23,0.268-0.366,0.385l1.857,0.027l0.223-14.881c0.017-1.106,0.161-1.891,0.433-2.354
					c0.271-0.463,0.779-0.776,1.521-0.938l0.268-0.43C284.721,423.653,284.039,423.996,283.681,424.525z"/>
				<path fill="#724B3C" d="M273.365,441.558l-5.523-0.082l0.226,0.393l5.2,0.077C273.287,441.813,273.32,441.685,273.365,441.558z"
					/>
			</g>
			<path fill="#D8A05E" d="M271.717,12.522c-14.085,1.708-28.386,1.675-42.086,2.802c-4.932,0.406-16.014,1.395-15.887,6.6
				c0.014,0.473,0.119,0.882,0.291,1.246c0.354,1.942,2.818,3.92,7.119,4.595c6.751,1.059,15.096-0.429,21.746-0.449
				c13.789-0.042,32.068,2.413,45.293-3.436C307.898,15.165,282.539,11.21,271.717,12.522z"/>
			<polygon fill="#D8A05E" points="220.003,91.885 223.229,117.705 375.224,117.611 379.304,91.885 			"/>
			<path opacity="0.6" fill="#FFFFFF" d="M237.197,107.309c-5.893-3.416-8.882-0.131-10.338,5.517
				c-5.025,9.711-1.243,26.075-0.779,35.466c0.434,8.764-6.13,38.866,2.811,42.444c13.495,5.401,6.42-31.408,6.428-38.328
				C235.337,137.728,239.368,121.239,237.197,107.309z"/>
			<polygon opacity="0.4" fill="#724B3C" points="351.482,91.821 345.941,117.629 375.224,117.611 379.304,91.885 			"/>
		</g>
	</g>
</g>
<g id="Rainbow-elix">
</g>
<g id="Lucky-elix">
</g>
<g id="Heart-elix">
</g>
</svg>
