<?xml version="1.0" encoding="utf-8"?>
<!-- Generator: Adobe Illustrator 16.0.0, SVG Export Plug-In . SVG Version: 6.00 Build 0)  -->
<!DOCTYPE svg PUBLIC "-//W3C//DTD SVG 1.1//EN" "http://www.w3.org/Graphics/SVG/1.1/DTD/svg11.dtd">
<svg version="1.1" xmlns="http://www.w3.org/2000/svg" xmlns:xlink="http://www.w3.org/1999/xlink" x="0px" y="0px" width="600px"
	 height="600px" viewBox="0 0 600 600" enable-background="new 0 0 600 600" xml:space="preserve">
<g id="Colour_Pallete">
</g>
<g id="FlipMe_logo">
</g>
<g id="Snake-elix">
</g>
<g id="Eyes-elix">
</g>
<g id="Star-elix">
</g>
<g id="Moon-elix">
</g>
<g id="Rainbow-elix">
	<g>
		<ellipse opacity="0.4" fill="#4D7372" cx="300" cy="556.018" rx="186.671" ry="37.258"/>
		<ellipse opacity="0.4" fill="#4D7372" cx="300" cy="546.8" rx="124.029" ry="28.039"/>
		<g>
			<path fill="#4D7372" d="M298.232,87.016c-6.146,0.729-2.303,4.697-5.042,9.272c-6.49,7.809-5.761,22.676-5.625,32.66
				c0.095,6.877,1.79,15.293,7.173,19.835c6.05,5.104,14.188,11.039,21.898,6.059C335.321,142.775,340.38,82.021,298.232,87.016z"/>
			<path fill="#72AEAF" d="M295.461,87.293c-6.113,0.96-9.978,4.644-13.061,8.995c-5.871,8.285-6.797,17.077-5.625,32.66
				c0.516,6.859,5.314,20.657,10.697,25.2c6.05,5.104,10.663,5.674,18.373,0.694C324.53,142.775,327.511,82.26,295.461,87.293z"/>
			<path fill="#72AEAF" d="M438.664,425.49c-9.549-63.257-91.395-76.39-95.941-82.409c-4.547-6.021-3.184-129.647-3.184-129.647
				s12.277-9.837,11.822-18.477c-0.454-8.639-11.366-11.985-11.366-11.985h-18.868h-45.698h-18.868c0,0-10.912,3.346-11.367,11.985
				c-0.454,8.639,11.822,18.477,11.822,18.477s1.364,123.627-3.183,129.647c-4.548,6.02-86.394,19.152-95.942,82.409
				c-13.133,87.002,66.387,128.229,91.85,128.226c11.193-0.002,85.881-0.002,97.074,0
				C370.858,553.72,452.053,514.188,438.664,425.49z"/>
			<path fill="#BACAD3" d="M429.215,423.739c-7.972-59.016-90.779-71.493-94.507-77.213c-2.382-3.656-1.322-97.983-1.303-133.093
				h-68.887c0.02,35.109-0.289,129.437-2.672,133.093c-3.727,5.72-89.764,19.995-97.59,80.101
				c-10.766,82.669,63.576,118.468,84.447,118.464c9.175-0.002,92.577,1.577,101.752,1.578
				C371.328,546.673,440.375,506.355,429.215,423.739z"/>
			<polygon fill="#72AEAF" points="332.103,173.539 337.887,164.112 337.887,153.464 259.941,153.464 259.941,164.743 
				265.875,174.076 265.875,187.404 298.966,207.189 298.969,207.54 299.255,207.361 299.553,207.54 299.549,207.179 
				332.316,186.866 			"/>
			<polygon fill="#4D7372" points="259.941,164.743 337.887,164.112 332.103,173.539 265.875,174.076 			"/>
			<rect x="296.185" y="173.891" opacity="0.3" fill="#4D7372" width="32.477" height="8.26"/>
			<polygon fill="#80C0BF" points="272.572,213.194 276.072,234.559 324.771,234.559 327.984,213.194 			"/>
			<polygon opacity="0.3" fill="#4D7372" points="300.278,213.194 298.431,234.559 319.43,234.559 323.707,213.194 			"/>
			<g>
				<path fill="#D23B82" d="M381.382,365.543c-2.114,0.391-4.229,0.821-6.339,1.299c-25.414,5.742-49.644-3.164-74.906-1.044
					c-11.532,0.968-22.778,5.421-34.426,6.515c-13.354,1.256-28.279,0.563-41.47-1.172c-5.372-0.707-11.481-1.316-16.724-1.242
					c-19.08,10.902-36.921,24.044-42.212,50.589c-0.476,2.387-0.526,4.558-0.797,7.174c-8.569,82.925,63.324,118.109,84.195,118.106
					c9.175-0.002,92.577,1.577,101.752,1.578c20.872,0.003,89.883-40.784,79.118-123.452
					C425.707,394.189,403.403,376.517,381.382,365.543z"/>
				<path fill="#CFBB2C" d="M429.698,424.912c-1.286-0.69-2.61-1.338-3.985-1.923c-21.257-9.04-47.225-8.6-69.946-8.374
					c-28.872,0.287-55.537,6.717-83.941,10.779c-35.384,5.062-72.726,6.397-106.642-5.063c-0.46,1.996-0.647,4.864-0.922,6.971
					c-10.766,82.669,63.576,118.468,84.448,118.465c9.175-0.002,92.577,1.577,101.752,1.578
					C371.248,547.349,439.763,506.893,429.698,424.912z"/>
				<path fill="#55AF47" d="M429.858,455.884c-20.979-5.112-48.97-1.487-64.676,1.146c-34.402,5.768-66.897,12.022-101.78,9.014
					c-28.627-2.47-69.796-13.368-98.492,0.612c12.279,54.804,65.771,79.115,82.969,79.112c9.175-0.002,92.577,1.577,101.752,1.578
					C367.647,547.349,422.378,517.371,429.858,455.884z"/>
				<path fill="#62C8D3" d="M403.568,491.694c-31.498,2.289-60.855,14.028-93.021,12.821c-30.388-1.141-59.316-15.171-89.589-14.87
					c-12.688,0.127-26.005,1.879-37.675,7.352c-1.978,0.927-3.798,2.063-5.551,3.285c20.936,31.248,55.354,45.487,68.515,45.485
					c9.176-0.002,92.581,1.331,101.753,1.578c17.441,0.471,52.045-18.018,70.801-54.817
					C414.6,491.786,407.649,491.398,403.568,491.694z"/>
				<path fill="#5B7ABC" d="M386.914,530.716c-16.219-4.305-39.701-2.996-51.059-3.026c-10.928-0.029-21.336,1.149-32.397,0.685
					c-13.833-0.582-25.961-2.931-39.47-5.288c-12.356-2.155-29.886-2.751-41.748,1.859c-4.479,1.74-8.733,4.093-12.948,6.536
					c14.821,9.689,29.149,14.287,36.623,14.286c9.175-0.002,92.594,1.033,101.753,1.578
					C359.912,548.073,372.328,542.201,386.914,530.716z"/>
			</g>
			<path opacity="0.5" fill="#FFFFFF" d="M261.1,361.816c-3.926-4.036-13.791-2.035-18.245-0.22
				c-1.965,0.801-3.717,1.777-5.307,2.897c-8.364,3.98-17.274,11.989-22.136,17.608c-8.343,9.646-17.789,22.814-17.181,36.68
				c0.44,9.994,10.617,25.897,19.911,14.109c8.139-10.321,9.551-26.918,16.982-38.254c4.819-7.352,10.883-11.844,17.928-16.396
				C257.925,375.096,267.684,368.587,261.1,361.816z"/>
			<path opacity="0.4" fill="#FFFFFF" d="M199.041,445.727c-4.807,0.803-7.076,3.259-7.702,6.369
				c-7.715,12.229,15.476,44.032,23.353,10.68C216.997,453.008,209.859,443.919,199.041,445.727z"/>
			<path opacity="0.3" fill="#FFFFFF" d="M282.251,245.884c-0.223-4.082-0.014-18.728-4.589-20.647
				c-2.693-1.129-3.88,1.258-4.166,4.681c-3.033,7.129,1.969,21.203,2.465,26.86c1.322,15.09-0.436,30.477-2.726,44.999
				c-1.123,7.119-8.75,31.796,0.285,36.692c11.994,6.5,6.685-29.137,6.685-34.098C280.205,284.823,283.329,265.633,282.251,245.884z
				"/>
			<path opacity="0.3" fill="#4D7372" d="M429.908,424.072c-8.53-58.836-87.481-70.68-92.754-76.449
				c-3.056,11.821,3.484,19.454,10.074,30.362c13.787,22.829,24.099,50.832,17.405,77.721
				c-4.736,19.023-22.502,36.128-38.948,45.743c-13.358,7.812-28.396,10.754-42.003,17.652
				c-10.724,5.437-17.032,16.119-17.315,27.072c27.54,0.437,77.444,1.35,84.423,1.351
				C371.662,547.528,441.752,505.771,429.908,424.072z"/>
			<path opacity="0.5" fill="#4D7372" d="M407.407,461.753c-0.405-9.062-8.976-7.954-13.998-2.634
				c-3.117,3.303-5.013,8.109-6.112,12.432c-1.802,7.075-4.622,12.841-9.173,18.717c-6.21,8.02-13.097,16.661-22.272,21.343
				c-5.682,2.898-11.471,4.884-17.406,7.01c-4.93,1.764-15.237,6.441-13.915,13.384c1.604,8.419,14.813,2.645,19.175,0.938
				c7.689-3.009,15.341-5.841,22.455-10.153c4.208-2.551,7.398-6.2,11.211-9.116c6.279-4.802,10.97-10.363,14.644-16.539
				c2.569-3.354,4.707-7.072,6.951-10.646C403.268,479.64,407.777,470.009,407.407,461.753z"/>
			<g>
				<circle opacity="0.1" fill="#FFFFFF" cx="313.258" cy="365.465" r="19.83"/>
				<circle opacity="0.2" fill="#FFFFFF" cx="314.917" cy="364.698" r="14.638"/>
				<path opacity="0.7" fill="#FFFFFF" d="M314.916,354.655c-0.628,4.449,0,10.043-7.936,10.719
					c2.352,1.097,4.978,2.054,6.617,4.255c1.457,1.959,2.642,5.257,2.889,7.651c0.447-2.589-0.153-5.005,1.447-7.646
					c1.194-1.973,3.215-3.352,5.479-3.613c-2.536-1.405-4.745-1.185-6.284-4.217c-0.587-1.158-1.131-2.371-1.494-3.574
					c-0.377-1.247-0.244-3.177-1.059-4.086L314.916,354.655z"/>
			</g>
			<g>
				<circle opacity="0.1" fill="#FFFFFF" cx="348.703" cy="190.947" r="19.83"/>
				<circle opacity="0.2" fill="#FFFFFF" cx="350.361" cy="190.181" r="14.639"/>
				<path opacity="0.7" fill="#FFFFFF" d="M350.361,180.138c-0.628,4.448,0,10.042-7.936,10.718
					c2.352,1.096,4.977,2.054,6.616,4.255c1.458,1.958,2.643,5.256,2.89,7.651c0.447-2.589-0.153-5.005,1.446-7.646
					c1.195-1.973,3.216-3.352,5.481-3.613c-2.537-1.405-4.746-1.185-6.285-4.217c-0.588-1.158-1.131-2.371-1.494-3.575
					c-0.377-1.246-0.244-3.176-1.059-4.085L350.361,180.138z"/>
			</g>
			<g>
				<circle opacity="0.1" fill="#FFFFFF" cx="237.579" cy="489.642" r="19.83"/>
				<circle opacity="0.2" fill="#FFFFFF" cx="239.238" cy="488.875" r="14.638"/>
				<path opacity="0.7" fill="#FFFFFF" d="M239.237,478.833c-0.628,4.448,0,10.042-7.936,10.719
					c2.351,1.096,4.978,2.054,6.616,4.255c1.458,1.959,2.643,5.257,2.889,7.651c0.448-2.589-0.152-5.006,1.447-7.646
					c1.195-1.972,3.216-3.351,5.48-3.612c-2.536-1.405-4.745-1.186-6.284-4.217c-0.587-1.158-1.132-2.372-1.494-3.575
					c-0.377-1.246-0.243-3.176-1.059-4.085L239.237,478.833z"/>
			</g>
			<g>
				<circle opacity="0.1" fill="#FFFFFF" cx="396.341" cy="436.574" r="19.83"/>
				<circle opacity="0.2" fill="#FFFFFF" cx="398" cy="435.81" r="14.638"/>
				<path opacity="0.7" fill="#FFFFFF" d="M397.999,425.767c-0.628,4.448,0,10.043-7.936,10.719
					c2.352,1.096,4.978,2.054,6.616,4.255c1.459,1.959,2.643,5.257,2.89,7.651c0.447-2.59-0.153-5.005,1.446-7.646
					c1.195-1.972,3.217-3.351,5.48-3.612c-2.537-1.406-4.745-1.186-6.283-4.218c-0.589-1.157-1.132-2.37-1.496-3.574
					c-0.375-1.246-0.242-3.177-1.059-4.085L397.999,425.767z"/>
			</g>
			<polygon opacity="0.2" fill="#FFFFFF" points="276.703,119.02 313.738,94.729 317.215,101.626 277.287,132.182 			"/>
			<polygon opacity="0.2" fill="#FFFFFF" points="279.938,141.909 319.377,111.286 319.674,115.445 283.417,149.049 			"/>
			<path opacity="0.3" fill="#FFFFFF" d="M318.4,185.504c-7.155-0.337-14.246,0.503-21.344,1.509
				c-7.582,0.308-15.172,0.909-22.998,1.579c-5.516,0.472-11.277,0.262-16.702,1.023c-2.552,0.358-5.147,0.534-6.403,3.146
				c-1.334,2.772-0.436,5.895,2.313,7.083c3.736,1.616,8.741-0.395,12.54-0.688c4.649-0.36,9.312-0.19,13.974-0.41
				c9.952-0.468,20.023-0.606,30.087-0.606c4.997,0,19.607,2.94,20.487-4.433C331.096,187.488,322.799,185.712,318.4,185.504z"/>
		</g>
	</g>
</g>
<g id="Lucky-elix">
</g>
<g id="Heart-elix">
</g>
</svg>
